<?xml version="1.0" encoding="UTF-8"?>
<!-- Generator: Adobe Illustrator 20.1.0, SVG Export Plug-In . SVG Version: 6.00 Build 0)  -->
<svg version="1.1" xmlns="http://www.w3.org/2000/svg" xmlns:xlink="http://www.w3.org/1999/xlink" x="0px" y="0px" viewBox="0 0 40 40" style="enable-background:new 0 0 40 40;" xml:space="preserve">
<style type="text/css">
	.st0{fill:#FFFFFF;}
</style>
<g id="Calque_1_-_copie_3">
	<polygon points="25,0 0,25 0,40 40,0  "/>
	<g>
		<defs>
			<rect id="SVGID_1_" width="40" height="40"/>
		</defs>
		<clipPath id="SVGID_2_">
			<use xlink:href="#SVGID_1_" style="overflow:visible;"/>
		</clipPath>
	</g>
	<g>
		<defs>
			<rect id="SVGID_3_" width="40" height="40"/>
		</defs>
		<clipPath id="SVGID_4_">
			<use xlink:href="#SVGID_3_" style="overflow:visible;"/>
		</clipPath>
	</g>
	<g>
		<defs>
			<rect id="SVGID_5_" width="40" height="40"/>
		</defs>
		<clipPath id="SVGID_6_">
			<use xlink:href="#SVGID_5_" style="overflow:visible;"/>
		</clipPath>
	</g>
	<g>
		<defs>
			<rect id="SVGID_7_" width="40" height="40"/>
		</defs>
		<clipPath id="SVGID_8_">
			<use xlink:href="#SVGID_7_" style="overflow:visible;"/>
		</clipPath>
	</g>
	<g>
		<defs>
			<rect id="SVGID_9_" width="40" height="40"/>
		</defs>
		<clipPath id="SVGID_10_">
			<use xlink:href="#SVGID_9_" style="overflow:visible;"/>
		</clipPath>
	</g>
</g>
<g id="Calque_2_-_copie">
	<g>
		<polygon class="st0" points="3.7,25.3 6.6,28.2 6.6,28.2 1.8,27.2 0.9,28.1 4.8,32 5.5,31.3 2.5,28.3 2.5,28.3 7.4,29.4 8.3,28.5     4.4,24.6   "/>
		<path class="st0" d="M7,21.8c1.2-1.2,2.9-1.3,4.1,0c1.2,1.2,1.2,2.9,0,4.1c-1.2,1.2-2.9,1.2-4.1,0C5.8,24.6,5.8,23,7,21.8     M10.5,25.2c0.8-0.8,0.7-2-0.1-2.8c-0.8-0.8-1.9-0.9-2.7,0c-0.8,0.8-0.7,2,0.1,2.7C8.5,25.9,9.7,26,10.5,25.2"/>
		<path class="st0" d="M15.5,18.5c0.9,0.9,0.9,2.2,0,3.1c-0.9,0.9-2.2,1-3.1,0l-2.5-2.5l0.7-0.7l2.4,2.4c0.4,0.4,1.1,0.7,1.8,0    c0.7-0.7,0.4-1.4,0-1.8l-2.4-2.4L13,16L15.5,18.5z"/>
		<polygon class="st0" points="13.4,15.6 14.2,14.8 18.2,16.7 16.3,12.6 17.1,11.9 19.4,17.4 18.8,18   "/>
		<polygon class="st0" points="17.5,11.5 20.1,8.9 20.7,9.5 18.8,11.4 19.8,12.4 21.6,10.6 22.2,11.2 20.4,13 21.5,14.1 23.5,12.1     24.1,12.7 21.4,15.4   "/>
		<path class="st0" d="M22.1,6.8l0.6-0.6l5.6,2.2l-0.8,0.8l-1.3-0.5l-1.7,1.7l0.5,1.2l-0.8,0.8L22.1,6.8z M25.4,8.4l-2.2-1l1,2.2    L25.4,8.4z"/>
		<path class="st0" d="M30.4,3.5c0.9,0.9,0.9,2.2,0,3.1c-0.9,0.9-2.2,1-3.1,0l-2.5-2.5l0.7-0.7L28,5.9c0.4,0.4,1.1,0.7,1.8,0    c0.7-0.7,0.4-1.4,0-1.8l-2.4-2.4L28,1L30.4,3.5z"/>
	</g>
</g>
</svg>