<?xml version="1.0" standalone="no"?>
<!DOCTYPE svg PUBLIC "-//W3C//DTD SVG 1.1//EN" "http://www.w3.org/Graphics/SVG/1.1/DTD/svg11.dtd" >
<svg xmlns="http://www.w3.org/2000/svg">
<metadata>
<json>
<![CDATA[
{
	"fontFamily": "lepapeico",
	"majorVersion": 1,
	"minorVersion": 0,
	"copyright": "lepape",
	"designer": "ronan le priol",
	"fontURL": "",
	"version": "Version 1.0",
	"fontId": "lepapeico",
	"psName": "lepapeico",
	"subFamily": "Regular",
	"fullName": "lepapeico",
	"description": "Font generated by IcoMoon."
}
]]>
</json>
</metadata>
<defs>
<font id="lepapeico" horiz-adv-x="1024">
<font-face units-per-em="1024" ascent="960" descent="-64" />
<missing-glyph horiz-adv-x="1024" />
<glyph unicode="&#x20;" horiz-adv-x="512" d="" />
<glyph unicode="&#xe600;" glyph-name="in-store-sales" data-tags="in-store-sales" d="M128 64h768v-48h-768v48zM510.859 526.906c-29.916 0-58.042 11.65-79.196 32.804s-32.804 49.28-32.804 79.196 11.65 58.042 32.804 79.196c21.154 21.154 49.28 32.804 79.196 32.804s58.042-11.65 79.196-32.804c21.154-21.154 32.804-49.28 32.804-79.196s-11.65-58.042-32.804-79.196c-21.154-21.154-49.28-32.804-79.196-32.804v0zM510.859 718.906c-44.112 0-80-35.888-80-80s35.888-80 80-80 80 35.888 80 80-35.888 80-80 80v0zM512 800c21.607 0 42.558-4.228 62.274-12.567 19.051-8.058 36.163-19.597 50.862-34.296s26.238-31.812 34.296-50.862c8.339-19.716 12.567-40.667 12.567-62.275 0-16.425-2.462-32.575-7.316-48l-0.435-1.383-0.308-1.416c-0.647-2.973-1.556-6.006-2.702-9.017l-126.476-332.369c-3.016-7.926-6.694-14.325-10.634-18.506-1.921-2.037-3.929-3.593-5.972-4.626-2.050-1.038-4.064-1.542-6.157-1.542s-4.107 0.504-6.156 1.541c-2.042 1.034-4.052 2.591-5.971 4.627-3.942 4.18-7.618 10.58-10.634 18.506l-126.477 332.369c-1.146 3.011-2.055 6.044-2.702 9.016l-0.308 1.418-0.436 1.384c-4.854 15.425-7.316 31.575-7.316 47.998 0 21.607 4.228 42.559 12.567 62.275 8.058 19.050 19.596 36.163 34.296 50.862s31.812 26.238 50.863 34.296c19.716 8.339 40.668 12.567 62.276 12.567zM512 832c-25.913 0-51.059-5.079-74.74-15.095-22.865-9.672-43.397-23.513-61.025-41.141s-31.469-38.159-41.141-61.024c-10.016-23.681-15.094-48.827-15.094-74.74 0-19.751 2.954-39.055 8.792-57.605 0.983-4.518 2.335-9.054 4.062-13.592l126.476-332.369c4.56-11.982 10.366-21.764 17.257-29.075 4.468-4.74 9.45-8.518 14.807-11.228 6.543-3.311 13.476-4.99 20.606-4.99s14.062 1.678 20.605 4.99c5.357 2.71 10.339 6.489 14.807 11.228 6.891 7.31 12.697 17.092 17.257 29.075l126.476 332.369c1.726 4.538 3.078 9.074 4.062 13.591 5.838 18.55 8.792 37.856 8.792 57.606 0 25.912-5.079 51.058-15.095 74.74-9.671 22.865-23.512 43.397-41.141 61.024-17.627 17.628-38.159 31.47-61.024 41.141-23.68 10.016-48.827 15.094-74.739 15.094v0z" />
<glyph unicode="&#xe601;" glyph-name="delivery-free" data-tags="delivery-free" d="M820 256c-53.019 0-96-42.981-96-96s42.981-96 96-96 96 42.981 96 96-42.981 96-96 96zM853.941 126.060c-9.066-9.066-21.12-14.059-33.941-14.059s-24.875 4.993-33.941 14.059c-9.066 9.066-14.059 21.12-14.059 33.941s4.993 24.875 14.059 33.941c9.066 9.066 21.12 14.059 33.941 14.059s24.875-4.993 33.941-14.059c9.066-9.066 14.059-21.12 14.059-33.941s-4.993-24.875-14.059-33.941zM288 256c-53.019 0-96-42.981-96-96s42.981-96 96-96 96 42.981 96 96-42.981 96-96 96zM321.941 126.060c-9.066-9.066-21.12-14.059-33.941-14.059s-24.875 4.993-33.941 14.059c-9.066 9.066-14.059 21.12-14.059 33.941s4.993 24.875 14.059 33.941c9.066 9.066 21.12 14.059 33.941 14.059s24.875-4.993 33.941-14.059c9.066-9.066 14.059-21.12 14.059-33.941s-4.993-24.875-14.059-33.941zM972 276h52v86.397c0 20.913-9.066 46.971-22.047 63.368l-7.132 9.009c-1.484 4.124-4.287 7.616-7.898 9.976l-110.153 139.14c-14.967 18.905-42.26 32.109-66.373 32.109h-58.393c-0.002 0-0.003 0-0.005 0s-0.003 0-0.005 0h-50.393c-7.598 0-14.877-1.386-21.602-3.913v73.112c0 32.423-26.378 58.801-58.801 58.801h-562.398c-32.423 0-58.801-26.378-58.801-58.801v-409.199h52c11.046 0 20-8.954 20-20s-8.954-20-20-20h-52v-25.2c0-32.422 26.378-58.8 58.801-58.8h113.479c-0.046 0.676-0.094 1.352-0.129 2.031-0.1 1.977-0.151 3.967-0.151 5.969 0 64.065 51.935 116 116 116s116-51.935 116-116c0-2.002-0.051-3.992-0.151-5.969-0.034-0.679-0.083-1.355-0.129-2.031h217.479c15.272 0 29.202 5.854 39.667 15.434 10.866-9.599 25.132-15.434 40.736-15.434h2.677c-0.046 0.676-0.094 1.352-0.129 2.031-0.1 1.977-0.151 3.967-0.151 5.969 0 64.065 51.935 116 116 116s116-51.935 116-116c0-2.002-0.051-3.992-0.151-5.969-0.034-0.679-0.083-1.355-0.129-2.031h26.677c33.968 0 61.602 27.635 61.602 61.602v22.398h-52c-11.046 0-20 8.954-20 20s8.954 20 20 20zM772 448v128h38.398c11.882 0 27.636-7.622 35.011-16.937l87.924-111.063h-161.333z" />
<glyph unicode="&#xe602;" glyph-name="delivery-gift" data-tags="delivery-gift" d="M820 256.001c-53.019 0-96-42.981-96-96s42.981-96 96-96 96 42.981 96 96-42.98 96-96 96zM853.941 126.060c-9.066-9.066-21.12-14.059-33.941-14.059s-24.875 4.993-33.941 14.059-14.059 21.12-14.059 33.941 4.993 24.875 14.059 33.941 21.12 14.059 33.941 14.059 24.875-4.993 33.941-14.059c9.066-9.066 14.059-21.12 14.059-33.941s-4.993-24.875-14.059-33.941zM288 256.001c-53.019 0-96-42.981-96-96s42.981-96 96-96 96 42.981 96 96-42.98 96-96 96zM321.941 126.060c-9.066-9.066-21.12-14.059-33.941-14.059s-24.875 4.993-33.941 14.059c-9.066 9.066-14.059 21.12-14.059 33.941s4.993 24.875 14.059 33.941c9.066 9.066 21.12 14.059 33.941 14.059s24.875-4.993 33.941-14.059c9.066-9.066 14.059-21.12 14.059-33.941s-4.993-24.875-14.059-33.941zM298.231 597.6l-6.194 16.873-98.852 13.988c-5.352 0.758-9.071 5.669-8.307 10.971s5.722 8.985 11.076 8.228l88.914-12.582c-0.519 3.301-0.166 6.675 1.014 9.792l-106.974 39.736-31.326-77.576 139.632-9.43h11.019zM972 276h52v86.398c0 20.913-9.066 46.971-22.047 63.368l-7.132 9.009c-1.484 4.124-4.287 7.616-7.898 9.976l-110.153 139.14c-14.967 18.905-42.26 32.109-66.373 32.109h-58.393c-0.002 0-0.003 0-0.005 0s-0.003 0-0.005 0h-50.393c-7.598 0-14.877-1.386-21.602-3.913v73.112c0 32.423-26.378 58.8-58.801 58.8h-562.398c-32.423 0-58.801-26.378-58.801-58.8v-409.2h52c11.046 0 20-8.954 20-20s-8.954-20-20-20h-52v-25.199c0-32.423 26.378-58.801 58.801-58.801h113.479c-0.046 0.676-0.094 1.352-0.129 2.031-0.1 1.977-0.151 3.967-0.151 5.969 0 64.065 51.935 116 116 116s116-51.935 116-116c0-2.002-0.051-3.992-0.151-5.969-0.034-0.679-0.083-1.355-0.129-2.031h217.479c15.272 0 29.202 5.854 39.667 15.434 10.866-9.599 25.132-15.434 40.736-15.434h2.677c-0.046 0.676-0.094 1.352-0.129 2.031-0.1 1.977-0.151 3.967-0.151 5.969 0 64.065 51.935 116 116 116s116-51.935 116-116c0-2.002-0.051-3.992-0.151-5.969-0.034-0.679-0.083-1.355-0.129-2.031h26.677c33.968 0 61.602 27.635 61.602 61.602v22.398h-52c-11.046 0-20 8.954-20 20s8.954 20 20 20zM571.398 596.711c-2.3-3.626-5.714-6.346-9.663-7.823 2.679-3.598 4.265-8.057 4.265-12.887v-256c0-11.929-9.671-21.6-21.6-21.6h-384c-11.929 0-21.6 9.671-21.6 21.6v256c0 4.559 1.416 8.786 3.827 12.272-4.774 1.236-8.952 4.225-11.625 8.439-3.332 5.251-3.927 11.764-1.602 17.523l31.326 77.576c1.901 4.708 5.588 8.491 10.271 10.539 2.515 1.1 5.209 1.652 7.908 1.652 2.326 0 4.656-0.41 6.874-1.235l121.981-45.31h86.878l121.981 45.31c2.219 0.824 4.548 1.235 6.874 1.235 2.698 0 5.393-0.552 7.908-1.652 4.683-2.048 8.37-5.831 10.271-10.539l31.326-77.576c2.326-5.759 1.73-12.272-1.602-17.523zM772 448v128h38.398c11.882 0 27.636-7.622 35.011-16.937l87.924-111.063h-161.333zM406 576h138.4v-256h-138.4v256zM160.4 576h138.4v-256h-138.4v256zM416.521 644.87c0.817-2.157 1.248-4.461 1.248-6.809 0-1.005-0.084-2.002-0.238-2.983l88.916 12.582c5.352 0.757 10.311-2.926 11.076-8.228s-2.954-10.214-8.306-10.971l-98.852-13.988-6.194-16.873h11.020l139.632 9.43-31.326 77.576-106.974-39.736zM319.064 597.6h64.272l14.853 40.461h-93.979zM320.4 576h64v-256h-64v256z" />
<glyph unicode="&#xe603;" glyph-name="delivery-offer" data-tags="delivery-offer" d="M820 256c-53.019 0-96-42.981-96-96s42.981-96 96-96 96 42.981 96 96-42.981 96-96 96zM853.941 126.060c-9.066-9.066-21.12-14.059-33.941-14.059s-24.875 4.993-33.941 14.059c-9.066 9.066-14.059 21.12-14.059 33.941s4.993 24.875 14.059 33.941c9.066 9.066 21.12 14.059 33.941 14.059s24.875-4.993 33.941-14.059c9.066-9.066 14.059-21.12 14.059-33.941s-4.993-24.875-14.059-33.941zM288 256c-53.019 0-96-42.981-96-96s42.981-96 96-96 96 42.981 96 96-42.981 96-96 96zM321.941 126.060c-9.066-9.066-21.12-14.059-33.941-14.059s-24.875 4.993-33.941 14.059c-9.066 9.066-14.059 21.12-14.059 33.941s4.993 24.875 14.059 33.941c9.066 9.066 21.12 14.059 33.941 14.059s24.875-4.993 33.941-14.059c9.066-9.066 14.059-21.12 14.059-33.941s-4.993-24.875-14.059-33.941zM972 276h52v86.397c0 20.913-9.066 46.971-22.047 63.368l-7.132 9.009c-1.484 4.124-4.287 7.616-7.898 9.976l-110.153 139.14c-14.967 18.905-42.26 32.109-66.373 32.109h-58.393c-0.002 0-0.003 0-0.005 0s-0.003 0-0.005 0h-50.393c-7.598 0-14.877-1.386-21.602-3.913v73.112c0 32.423-26.378 58.801-58.801 58.801h-562.398c-32.423 0-58.801-26.378-58.801-58.801v-409.199h52c11.046 0 20-8.954 20-20s-8.954-20-20-20h-52v-25.2c0-32.422 26.378-58.8 58.801-58.8h113.479c-0.046 0.676-0.094 1.352-0.129 2.031-0.1 1.977-0.151 3.967-0.151 5.969 0 64.065 51.935 116 116 116s116-51.935 116-116c0-2.002-0.051-3.992-0.151-5.969-0.034-0.679-0.083-1.355-0.129-2.031h217.479c15.272 0 29.202 5.854 39.667 15.434 10.866-9.599 25.132-15.434 40.736-15.434h2.677c-0.046 0.676-0.094 1.352-0.129 2.031-0.1 1.977-0.151 3.967-0.151 5.969 0 64.065 51.935 116 116 116s116-51.935 116-116c0-2.002-0.051-3.992-0.151-5.969-0.034-0.679-0.083-1.355-0.129-2.031h26.677c33.968 0 61.602 27.635 61.602 61.602v22.398h-52c-11.046 0-20 8.954-20 20s8.954 20 20 20zM287.685 429.024c0-27.171-6.854-50.363-20.563-69.579s-33.47-31.567-59.28-37.053c-25.814-5.487-45.572-1.536-59.28 11.853s-20.563 33.666-20.563 60.837v135.047c0 28.033 6.637 51.521 19.914 70.46 13.274 18.938 33.252 31.243 59.928 36.913 26.427 5.617 46.341 1.76 59.743-11.569 13.399-13.332 20.1-33.953 20.1-61.862v-135.047zM512.252 564.535l-44.391-9.436v14.187c0 0.202 0 0.458 0 0.763 0 3.151 0 5.492 0 7.017s-0.076 3.619-0.229 6.282c-0.152 2.661-0.358 4.653-0.61 5.972-0.255 1.319-0.663 2.96-1.22 4.927-0.56 1.964-1.22 3.426-1.983 4.384-0.763 0.956-1.754 1.965-2.975 3.029-1.22 1.061-2.62 1.755-4.195 2.083-1.578 0.325-3.408 0.496-5.492 0.511-2.086 0.014-4.45-0.26-7.094-0.821-3.866-0.822-7.246-1.998-10.144-3.529s-5.263-3.483-7.094-5.855c-1.83-2.372-3.332-4.803-4.5-7.287-1.17-2.487-2.036-5.596-2.593-9.323-0.56-3.73-0.915-7.136-1.068-10.219s-0.229-6.966-0.229-11.642v-21.357l30.357 6.452v-19.068l-30.357-6.452v-24.255l30.357 6.452v-18.916l-30.357-6.453v-23.492c0-14.95 1.854-25.158 5.568-30.623 3.711-5.466 10.397-7.172 20.060-5.118 3.761 0.8 7.017 1.923 9.763 3.372 2.746 1.446 4.982 3.371 6.712 5.774 1.728 2.4 3.101 4.752 4.119 7.054 1.015 2.299 1.754 5.331 2.212 9.089s0.736 6.995 0.839 9.712c0.1 2.715 0.152 6.463 0.152 11.245v12.356l44.391 9.436v-10.526c0-11.899-1.094-22.557-3.28-31.97-2.188-9.416-5.797-18.217-10.831-26.405-5.034-8.19-12.104-15.108-21.204-20.753-9.103-5.646-20.162-9.854-33.179-12.62-13.629-2.897-25.196-3.296-34.704-1.198-9.51 2.097-16.933 6.493-22.272 13.19-5.339 6.695-9.153 14.732-11.441 24.112-2.288 9.377-3.432 20.575-3.432 33.594v13.882l-16.933-3.599v18.916l16.933 3.599v24.255l-16.933-3.599v19.068l16.933 3.599v12.051c0 13.729 1.144 25.871 3.432 36.426s6.102 20.263 11.441 29.128c5.339 8.862 12.762 16.263 22.272 22.201 9.508 5.935 21.075 10.353 34.704 13.25 12.609 2.68 23.39 3.294 32.34 1.84 8.948-1.454 16.041-4.88 21.28-10.274 5.237-5.396 9.024-12.192 11.365-20.39 2.338-8.198 3.508-18.094 3.508-29.688v-14.339zM772 448v128h38.398c11.882 0 27.636-7.622 35.011-16.937l87.924-111.063h-161.333zM232.944 572.813c-0.556 3.587-1.482 6.632-2.779 9.135s-2.871 4.762-4.724 6.776-4.292 3.316-7.317 3.91c-3.028 0.59-6.455 0.48-10.281-0.333-4.57-0.972-8.553-2.776-11.949-5.411-3.398-2.638-6.021-5.572-7.873-8.806-1.852-3.236-3.306-7.158-4.353-11.762-1.051-4.609-1.731-8.829-2.038-12.66-0.31-3.834-0.463-8.22-0.463-13.158v-133.38c0-30.135 8.892-43.311 26.676-39.531s26.676 20.736 26.676 50.871v133.38c0 3.951-0.124 7.537-0.37 10.758-0.249 3.217-0.649 6.623-1.204 10.21z" />
<glyph unicode="&#xe604;" glyph-name="delivery-cost" data-tags="delivery-cost" d="M820 256.001c-53.019 0-96-42.981-96-96s42.981-96 96-96 96 42.981 96 96-42.98 96-96 96zM853.941 126.060c-9.066-9.066-21.12-14.059-33.941-14.059s-24.875 4.993-33.941 14.059-14.059 21.12-14.059 33.941 4.993 24.875 14.059 33.941 21.12 14.059 33.941 14.059 24.875-4.993 33.941-14.059c9.066-9.066 14.059-21.12 14.059-33.941s-4.993-24.875-14.059-33.941zM288 256.001c-53.019 0-96-42.981-96-96s42.981-96 96-96 96 42.981 96 96-42.98 96-96 96zM321.941 126.060c-9.066-9.066-21.12-14.059-33.941-14.059s-24.875 4.993-33.941 14.059c-9.066 9.066-14.059 21.12-14.059 33.941s4.993 24.875 14.059 33.941c9.066 9.066 21.12 14.059 33.941 14.059s24.875-4.993 33.941-14.059c9.066-9.066 14.059-21.12 14.059-33.941s-4.993-24.875-14.059-33.941zM972 276h52v86.398c0 20.913-9.066 46.971-22.047 63.368l-7.132 9.009c-1.484 4.124-4.287 7.616-7.898 9.976l-110.153 139.14c-14.967 18.905-42.26 32.109-66.373 32.109h-58.393c-0.002 0-0.003 0-0.005 0s-0.003 0-0.005 0h-50.393c-7.598 0-14.877-1.386-21.602-3.913v73.112c0 32.423-26.378 58.8-58.801 58.8h-562.398c-32.423 0-58.801-26.378-58.801-58.8v-409.2h52c11.046 0 20-8.954 20-20s-8.954-20-20-20h-52v-25.199c0-32.423 26.378-58.801 58.801-58.801h113.479c-0.046 0.676-0.094 1.352-0.129 2.031-0.1 1.977-0.151 3.967-0.151 5.969 0 64.065 51.935 116 116 116s116-51.935 116-116c0-2.002-0.051-3.992-0.151-5.969-0.034-0.679-0.083-1.355-0.129-2.031h217.479c15.272 0 29.202 5.854 39.667 15.434 10.866-9.599 25.132-15.434 40.736-15.434h2.677c-0.046 0.676-0.094 1.352-0.129 2.031-0.1 1.977-0.151 3.967-0.151 5.969 0 64.065 51.935 116 116 116s116-51.935 116-116c0-2.002-0.051-3.992-0.151-5.969-0.034-0.679-0.083-1.355-0.129-2.031h26.677c33.968 0 61.602 27.635 61.602 61.602v22.398h-52c-11.046 0-20 8.954-20 20s8.954 20 20 20zM209.575 505.696c-1.397-7.063-3.652-14.147-6.766-21.253-3.116-7.106-6.016-13.147-8.699-18.12-2.686-4.976-6.391-11.455-11.116-19.439-0.539-0.868-0.942-1.544-1.208-2.029-0.269-0.488-0.619-1.073-1.047-1.753-0.43-0.684-0.806-1.327-1.128-1.931l-54.933-95.284 80.064 17.018v-36.89l-132.742-28.215v32.219l65.243 116.002c0.966 1.816 3.597 6.374 7.894 13.679 4.294 7.301 7.141 12.364 8.538 15.186 1.394 2.818 3.356 7.101 5.88 12.848 2.522 5.743 4.242 10.995 5.155 15.755 0.911 4.757 1.369 9.715 1.369 14.87 0 10.523-1.852 18.132-5.558 22.822s-9.424 5.996-17.156 3.925c-16.326-4.223-24.486-20.242-24.486-48.056v-11.116l-45.106-9.588v11.438c0 12.243 1.289 23.443 3.866 33.604 2.577 10.158 6.549 19.46 11.921 27.906 5.369 8.443 12.59 15.564 21.667 21.359 9.074 5.795 19.734 9.994 31.977 12.596 22.553 4.794 39.601 2.321 51.147-7.412 11.544-9.737 17.318-25.774 17.319-48.111 0-7.627-0.7-14.969-2.094-22.032zM367.092 452.348c0-11.063-0.644-21.24-1.933-30.536s-3.572-18.399-6.846-27.311c-3.277-8.912-7.491-16.735-12.646-23.469s-11.841-12.614-20.056-17.634c-8.216-5.022-17.695-8.675-28.433-10.957-44.248-9.405-66.693 8.43-67.337 53.508v3.222l44.3 9.416c0-12.138 1.584-20.686 4.752-25.651 3.166-4.965 9.369-6.466 18.606-4.502 8.591 1.826 14.632 7.379 18.123 16.659 3.489 9.279 5.236 23.908 5.236 43.883v31.574c-6.66-12.692-18.526-20.961-35.602-24.804-8.485-1.912-16.056-2.26-22.714-1.042-6.66 1.214-12.138 3.647-16.432 7.301-4.297 3.65-7.841 8.534-10.632 14.655-2.794 6.116-4.78 12.838-5.96 20.158-1.183 7.32-1.772 15.491-1.772 24.512 0 13.316 1.289 25.566 3.866 36.746s6.549 21.42 11.921 30.725c5.369 9.301 12.59 17.146 21.667 23.534 9.074 6.384 19.787 10.892 32.138 13.517 12.026 2.556 22.578 2.596 31.655 0.124 9.074-2.476 16.351-7.104 21.828-13.886 5.477-6.785 9.558-15.044 12.244-24.783 2.683-9.74 4.027-20.947 4.027-33.618v-91.341zM401.314 377.243l-24.114-5.126v24.557l24.114 5.126v-24.557zM496.668 443.626c0-6.088-0.355-11.689-1.064-16.804s-1.965-10.126-3.768-15.030c-1.803-4.905-4.122-9.21-6.959-12.916s-6.516-6.942-11.038-9.704c-4.522-2.764-9.738-4.774-15.648-6.030-24.35-5.176-36.702 4.639-37.057 29.446v1.773l24.38 5.182c0-6.68 0.871-11.384 2.615-14.116 1.743-2.733 5.156-3.559 10.24-2.478 4.728 1.005 8.052 4.061 9.974 9.168 1.92 5.107 2.881 13.157 2.881 24.15v17.376c-3.665-6.985-10.195-11.536-19.592-13.65-4.669-1.052-8.836-1.244-12.5-0.574-3.666 0.668-6.68 2.007-9.043 4.018-2.364 2.008-4.315 4.697-5.851 8.065-1.538 3.366-2.631 7.065-3.28 11.094-0.651 4.028-0.975 8.525-0.975 13.49 0 7.328 0.709 14.070 2.128 20.222s3.604 11.788 6.56 16.909c2.955 5.119 6.929 9.436 11.924 12.951 4.994 3.513 10.889 5.994 17.686 7.438 6.618 1.407 12.425 1.429 17.42 0.068 4.994-1.363 8.998-3.91 12.012-7.642 3.014-3.734 5.26-8.279 6.738-13.637 1.477-5.36 2.216-11.528 2.216-18.501v-50.267zM583.999 452.688c0-13.004-3.28-24.102-9.84-33.298s-16.017-15.107-28.369-17.732c-12.353-2.626-21.809-0.735-28.369 5.672s-9.84 16.111-9.84 29.114v64.629c0 13.416 3.176 24.656 9.53 33.72 6.353 9.063 15.914 14.952 28.68 17.665 12.647 2.688 22.178 0.842 28.59-5.536 6.412-6.38 9.619-16.249 9.619-29.605v-64.629zM584.001 669.5l-20.178-4.289v6.448c0 0.092 0 0.208 0 0.347 0 1.432 0 2.496 0 3.19s-0.035 1.645-0.104 2.856c-0.069 1.209-0.162 2.115-0.277 2.714s-0.301 1.345-0.555 2.24c-0.255 0.893-0.555 1.557-0.902 1.993-0.347 0.434-0.797 0.893-1.352 1.377-0.555 0.482-1.191 0.798-1.907 0.947-0.717 0.147-1.55 0.225-2.496 0.232-0.948 0.007-2.023-0.118-3.224-0.373-1.758-0.373-3.294-0.908-4.611-1.604s-2.392-1.583-3.224-2.662c-0.832-1.078-1.515-2.183-2.046-3.312-0.532-1.131-0.925-2.544-1.179-4.238-0.254-1.696-0.416-3.243-0.485-4.645s-0.104-3.166-0.104-5.292v-9.708l13.799 2.933v-8.668l-13.799-2.933v-11.025l13.799 2.933v-8.598l-13.799-2.933v-10.678c0-6.796 0.843-11.436 2.531-13.92s4.726-3.26 9.118-2.326c1.71 0.364 3.19 0.874 4.438 1.533s2.264 1.532 3.051 2.625c0.785 1.091 1.409 2.16 1.872 3.206 0.461 1.045 0.797 2.423 1.005 4.131s0.334 3.179 0.381 4.415c0.045 1.234 0.069 2.938 0.069 5.111v5.616l20.178 4.289v-4.784c0-5.408-0.497-10.253-1.491-14.532s-2.635-8.28-4.923-12.002c-2.288-3.723-5.502-6.867-9.638-9.433-4.138-2.566-9.165-4.479-15.082-5.736-6.195-1.317-11.453-1.498-15.775-0.545s-7.697 2.951-10.124 5.996c-2.427 3.043-4.16 6.696-5.2 10.96-1.040 4.262-1.56 9.352-1.56 15.27v6.31l-7.697-1.636v8.598l7.697 1.636v11.025l-7.697-1.636v8.668l7.697 1.636v5.478c0 6.241 0.52 11.76 1.56 16.557s2.774 9.21 5.2 13.24c2.427 4.028 5.801 7.392 10.124 10.091 4.322 2.698 9.58 4.706 15.775 6.023 5.731 1.218 10.632 1.497 14.7 0.836 4.067-0.661 7.292-2.218 9.673-4.67s4.102-5.542 5.167-9.269c1.063-3.726 1.595-8.224 1.595-13.494v-6.518zM772 448v128h38.398c11.882 0 27.636-7.622 35.011-16.937l87.924-111.063h-161.333zM557.804 521.501c-0.266 1.716-0.709 3.174-1.33 4.372s-1.374 2.279-2.261 3.243-2.054 1.587-3.502 1.871c-1.449 0.282-3.089 0.23-4.92-0.159-2.187-0.465-4.093-1.329-5.718-2.59-1.626-1.263-2.882-2.667-3.768-4.214-0.886-1.549-1.582-3.426-2.083-5.629-0.503-2.206-0.828-4.225-0.975-6.058-0.148-1.835-0.222-3.934-0.222-6.297v-63.831c0-14.422 4.255-20.727 12.766-18.918s12.766 9.924 12.766 24.345h0.001v63.831c0 1.89-0.059 3.606-0.177 5.148-0.119 1.54-0.31 3.17-0.576 4.886zM458.281 514.101c-2.542-0.54-4.685-1.647-6.428-3.316-1.744-1.672-3.074-3.831-3.99-6.478-0.917-2.648-1.551-5.442-1.906-8.384s-0.532-6.334-0.532-10.175c0-2.188 0-3.828 0-4.92 0-1.094 0.044-2.606 0.133-4.538s0.207-3.385 0.355-4.357c0.147-0.974 0.368-2.198 0.665-3.671 0.295-1.475 0.65-2.581 1.064-3.32 0.413-0.741 0.96-1.54 1.64-2.4 0.679-0.862 1.448-1.437 2.305-1.726 0.856-0.292 1.862-0.49 3.014-0.6s2.438-0.014 3.856 0.288c5.496 1.168 9.752 4.91 12.766 11.224v0 22.164c0 15.306-4.315 22.044-12.944 20.21zM320.857 543.688c0 27.814-7.84 40.057-23.52 36.724-4.619-0.982-8.513-2.992-11.679-6.026-3.169-3.038-5.585-6.962-7.249-11.77-1.666-4.813-2.819-9.89-3.464-15.235-0.644-5.348-0.966-11.51-0.966-18.49 0-3.975 0-6.955 0-8.941 0-1.988 0.080-4.735 0.242-8.245s0.375-6.15 0.644-7.918c0.267-1.771 0.67-3.994 1.208-6.67 0.536-2.68 1.181-4.69 1.933-6.033 0.75-1.346 1.745-2.799 2.98-4.36 1.233-1.566 2.63-2.61 4.188-3.137 1.556-0.53 3.383-0.892 5.477-1.091s4.43-0.025 7.008 0.523c9.988 2.123 17.72 8.922 23.198 20.396h-0.001v40.274z" />
<glyph unicode="&#xe605;" glyph-name="delivery-3d" data-tags="delivery-3d" d="M820 256c-53.019 0-96-42.981-96-96s42.981-96 96-96 96 42.981 96 96-42.981 96-96 96zM853.941 126.060c-9.066-9.066-21.12-14.059-33.941-14.059s-24.875 4.993-33.941 14.059c-9.066 9.066-14.059 21.12-14.059 33.941s4.993 24.875 14.059 33.941c9.066 9.066 21.12 14.059 33.941 14.059s24.875-4.993 33.941-14.059c9.066-9.066 14.059-21.12 14.059-33.941s-4.993-24.875-14.059-33.941zM288 256c-53.019 0-96-42.981-96-96s42.981-96 96-96 96 42.981 96 96-42.981 96-96 96zM321.941 126.060c-9.066-9.066-21.12-14.059-33.941-14.059s-24.875 4.993-33.941 14.059c-9.066 9.066-14.059 21.12-14.059 33.941s4.993 24.875 14.059 33.941c9.066 9.066 21.12 14.059 33.941 14.059s24.875-4.993 33.941-14.059c9.066-9.066 14.059-21.12 14.059-33.941s-4.993-24.875-14.059-33.941zM972 276h52v86.397c0 20.913-9.066 46.971-22.047 63.368l-7.132 9.009c-1.484 4.124-4.287 7.616-7.898 9.976l-110.153 139.14c-14.967 18.905-42.26 32.109-66.373 32.109h-58.393c-0.002 0-0.003 0-0.005 0s-0.003 0-0.005 0h-50.393c-7.598 0-14.877-1.386-21.602-3.913v73.112c0 32.423-26.378 58.801-58.801 58.801h-562.398c-32.423 0-58.801-26.378-58.801-58.801v-409.199h52c11.046 0 20-8.954 20-20s-8.954-20-20-20h-52v-25.2c0-32.422 26.378-58.8 58.801-58.8h113.479c-0.046 0.676-0.094 1.352-0.129 2.031-0.1 1.977-0.151 3.967-0.151 5.969 0 64.065 51.935 116 116 116s116-51.935 116-116c0-2.002-0.051-3.992-0.151-5.969-0.034-0.679-0.083-1.355-0.129-2.031h217.479c15.272 0 29.202 5.854 39.667 15.434 10.866-9.599 25.132-15.434 40.736-15.434h2.677c-0.046 0.676-0.094 1.352-0.129 2.031-0.1 1.977-0.151 3.967-0.151 5.969 0 64.065 51.935 116 116 116s116-51.935 116-116c0-2.002-0.051-3.992-0.151-5.969-0.034-0.679-0.083-1.355-0.129-2.031h26.677c33.968 0 61.602 27.635 61.602 61.602v22.398h-52c-11.046 0-20 8.954-20 20s8.954 20 20 20zM346.29 505.518c7.382-11.225 11.075-27.214 11.075-47.962 0-30.171-6.621-55.131-19.859-74.874-13.242-19.747-34.118-32.649-62.633-38.71-28.261-6.007-49.141-2.616-62.633 10.174-13.495 12.79-20.241 33.441-20.241 61.959v11.266l54.231 11.527v-8.784c0.254-15.986 2.387-27.372 6.397-34.157s11.553-9.002 22.628-6.648c4.837 1.028 9.005 2.74 12.508 5.141 3.5 2.396 6.269 5.118 8.306 8.162 2.035 3.040 3.596 6.938 4.678 11.688 1.080 4.747 1.814 9.456 2.196 14.12s0.573 10.305 0.573 16.926c0 16.804-2.739 29.016-8.211 36.636-5.475 7.62-15.022 10.364-28.643 8.233-0.51-0.108-1.91-0.376-4.201-0.798-2.292-0.424-3.628-0.676-4.010-0.757v45.447c4.073 0.866 6.492 1.443 7.256 1.733 14.002 3.358 23.804 9.099 29.407 17.23 5.6 8.128 8.402 20.147 8.402 36.062 0 14.002-2.133 24.051-6.397 30.148-4.267 6.092-11.809 7.992-22.628 5.693-4.583-0.974-8.563-2.584-11.935-4.828-3.374-2.245-6.081-4.858-8.116-7.836-2.038-2.981-3.661-6.602-4.869-10.869-1.211-4.267-2.038-8.548-2.482-12.844-0.448-4.296-0.734-9.259-0.859-14.886v-10.694l-54.231-11.526v14.704c0 26.987 7.161 49.418 21.482 67.294 14.322 17.873 34.658 29.613 61.010 35.214 26.605 5.655 47.070 2.749 61.392-8.72s21.482-30.635 21.482-57.493c0-17.95-3.885-33.736-11.648-47.35-7.766-13.618-18.078-23.639-30.934-30.063 13.62-1.816 24.122-8.335 31.507-19.559zM471.618 392.283c0-17.821-4.998-32.952-14.99-45.387-9.995-12.436-24.030-20.575-42.105-24.417-10.95-2.327-20.178-3.015-27.688-2.066v38.191c4.711 0.113 8.464 0.462 11.266 1.058 13.492 2.868 20.241 12.007 20.241 27.408v224.752l53.276 11.324v-230.863zM472 658.935l-53.849-11.446v45.065l53.849 11.446v-45.065zM772 448v128h38.398c11.882 0 27.636-7.622 35.011-16.937l87.924-111.063h-161.333z" />
<glyph unicode="&#xe606;" glyph-name="payment-card-234" data-tags="payment-card-234" d="M736 160h128v-128h-128v128zM848 240c0 12.82-4.993 24.873-14.060 33.94s-21.12 14.060-33.94 14.060-24.873-4.993-33.94-14.060-14.060-21.12-14.060-33.94v-48h96v48zM896 361.477v86.523c0 35.2-28.8 64-64 64h-640c-35.2 0-64-28.8-64-64v-384c0-35.2 28.8-64 64-64h449.236c40.401-39.589 95.732-64 156.764-64 123.712 0 224 100.288 224 224 0 88.567-51.402 165.125-126 201.477zM160 448c0 8.477 3.348 16.493 9.427 22.573s14.096 9.427 22.573 9.427h640c8.477 0 16.493-3.348 22.573-9.427s9.427-14.096 9.427-22.573v-64h-704v64zM192 32c-8.477 0-16.493 3.348-22.573 9.427s-9.427 14.096-9.427 22.573v192h435.561c-13.823-29.097-21.561-61.644-21.561-96 0-47.593 14.845-91.717 40.154-128h-422.154zM614.154 288h-454.154v32h481.236c-9.986-9.786-19.060-20.499-27.082-32zM896 0h-192v192h16v48c0 44.18 35.82 80 80 80s80-35.82 80-80v-48h16v-192zM960 664v40l-602.193-128h188.185zM255.194 653.546l-76.718-16.3 52.637 91.264c0.309 0.579 0.668 1.196 1.080 1.85 0.41 0.651 0.745 1.212 1.003 1.679 0.256 0.464 0.642 1.113 1.158 1.943 4.527 7.647 8.078 13.852 10.651 18.618 2.571 4.763 5.35 10.549 8.336 17.355 2.984 6.806 5.144 13.591 6.483 20.356 1.336 6.764 2.007 13.797 2.007 21.102 0 21.394-5.533 36.755-16.594 46.081-11.064 9.323-27.399 11.691-49.010 7.1-11.732-2.492-21.946-6.514-30.641-12.065-8.697-5.551-15.617-12.371-20.762-20.458-5.147-8.090-8.953-16.999-11.423-26.729-2.47-9.732-3.705-20.46-3.705-32.186v-10.955l43.221 9.183v10.646c0 26.64 7.819 41.984 23.463 46.028 7.409 1.984 12.889 0.733 16.44-3.759s5.326-11.779 5.326-21.859c0-4.938-0.439-9.686-1.312-14.243-0.876-4.56-2.523-9.589-4.94-15.090-2.419-5.505-4.298-9.607-5.634-12.306-1.339-2.702-4.066-7.552-8.181-14.545-4.117-6.996-6.638-11.362-7.564-13.102l-62.516-111.107v-30.859l127.194 27.024v35.334zM331.839 677.237l-41.986-8.921v-42.74l41.986 8.921zM375.605 659.225c10.906-10.335 27.785-13.075 50.631-8.221 23.050 4.898 39.926 15.323 50.631 31.279 10.702 15.953 16.054 36.122 16.054 60.501 0 16.765-2.986 29.685-8.953 38.755-5.97 9.070-14.46 14.337-25.47 15.804 10.393 5.19 18.728 13.288 25.007 24.292 6.276 11.001 9.416 23.756 9.416 38.26 0 21.703-5.788 37.19-17.366 46.457s-28.12 11.615-49.627 7.046c-21.302-4.526-37.742-14.012-49.318-28.454-11.577-14.444-17.366-32.57-17.366-54.376v-11.881l43.839 9.314v8.641c0.101 4.547 0.333 8.557 0.695 12.028 0.359 3.471 1.028 6.93 2.007 10.378 0.977 3.448 2.289 6.374 3.936 8.783 1.645 2.406 3.832 4.517 6.56 6.331 2.726 1.814 5.943 3.114 9.648 3.901 8.746 1.858 14.843 0.323 18.292-4.6 3.446-4.926 5.171-13.046 5.171-24.36 0-12.86-2.265-22.572-6.792-29.139-4.53-6.57-12.453-11.209-23.772-13.923-0.618-0.235-2.574-0.701-5.866-1.4v-36.723c0.309 0.066 1.389 0.269 3.242 0.612 1.852 0.34 2.984 0.557 3.396 0.644 11.010 1.722 18.728-0.496 23.154-6.653 4.423-6.158 6.638-16.025 6.638-29.603 0-5.35-0.154-9.908-0.463-13.676s-0.902-7.574-1.775-11.409c-0.876-3.838-2.137-6.988-3.782-9.444-1.647-2.46-3.886-4.659-6.715-6.596-2.832-1.94-6.201-3.323-10.111-4.154-8.953-1.902-15.050-0.112-18.292 5.371s-4.966 14.683-5.171 27.6v7.098l-43.839-9.314v-9.104c-0.001-23.044 5.452-39.73 16.361-50.065zM561.846 726.106l-41.986-8.921v-42.74l41.986 8.921zM662.881 704.832l41.369 8.79v62.49l26.55 5.641v36.414l-26.55-5.641v147.474h-45.184l-6.373-1.354-64.986-166.87v-40.426l75.174 15.972v-62.49zM625.68 795.832l37.201 116.375v-108.471l-37.201-7.904zM870.518 748.948l20.926 62.5 25.611-52.613 42.945 9.124-42.32 87.657 39.51 103.746-37.948-8.063-20.145-57.307-23.268 48.084-42.789-9.091 39.041-80.894-40.134-111.338z" />
<glyph unicode="&#xe607;" glyph-name="payment-card" data-tags="payment-card" d="M736 288h128v-128h-128v128zM848 368c0 12.82-4.993 24.873-14.060 33.94s-21.12 14.060-33.94 14.060-24.873-4.993-33.94-14.060-14.060-21.12-14.060-33.94v-48h96v48zM896 489.477v86.523c0 35.2-28.8 64-64 64h-640c-35.2 0-64-28.8-64-64v-384c0-35.2 28.8-64 64-64h449.236c40.401-39.589 95.732-64 156.764-64 123.712 0 224 100.288 224 224 0 88.567-51.402 165.125-126 201.477zM160 576c0 8.477 3.348 16.493 9.427 22.573s14.096 9.427 22.573 9.427h640c8.477 0 16.493-3.348 22.573-9.427s9.427-14.096 9.427-22.573v-64h-704v64zM192 160c-8.477 0-16.493 3.348-22.573 9.427s-9.427 14.096-9.427 22.573v192h435.561c-13.823-29.097-21.561-61.644-21.561-96 0-47.593 14.845-91.717 40.154-128h-422.154zM614.154 416h-454.154v32h481.236c-9.986-9.786-19.060-20.499-27.082-32zM896 128h-192v192h16v48c0 44.18 35.82 80 80 80s80-35.82 80-80v-48h16v-192z" />
<glyph unicode="&#xe608;" glyph-name="payment-card-3ds" data-tags="payment-card-3ds" d="M193.35 704c22.485 0 38.948 6.671 49.389 20.016 10.44 13.343 15.66 31.906 15.66 55.685 0 16.353-2.913 29.573-8.734 39.657-5.823 10.084-14.105 16.98-24.845 20.694 10.138 2.909 18.269 9.079 24.394 18.512 6.122 9.43 9.185 21.22 9.185 35.368 0 21.169-5.647 37.474-16.94 48.912s-27.431 17.157-48.41 17.157c-20.78 0-36.816-5.846-48.11-17.533-11.293-11.69-16.94-28.169-16.94-49.439v-11.588h42.764v8.428c0.099 4.414 0.325 8.278 0.678 11.588 0.35 3.311 1.002 6.547 1.958 9.707 0.953 3.16 2.233 5.742 3.84 7.751 1.604 2.006 3.738 3.612 6.4 4.816 2.659 1.204 5.797 1.806 9.411 1.806 8.531 0 14.479-2.761 17.844-8.278 3.362-5.519 5.044-13.797 5.044-24.832 0-12.543-2.209-21.547-6.626-27.015-4.418-5.47-12.147-8.353-23.189-8.654-0.602-0.101-2.51-0.15-5.722-0.15v-35.819c0.301 0 1.355-0.026 3.162-0.075 1.807-0.052 2.91-0.075 3.313-0.075 10.74-0.602 18.269-4.364 22.586-11.288 4.315-6.923 6.475-17.006 6.475-30.25 0-5.218-0.15-9.632-0.452-13.244s-0.88-7.2-1.732-10.761c-0.854-3.563-2.085-6.373-3.689-8.428-1.607-2.058-3.79-3.739-6.55-5.042-2.762-1.305-6.049-1.956-9.863-1.956-8.734 0-14.681 3.010-17.844 9.030s-4.844 15.351-5.044 27.993v6.923h-42.764v-8.88c0-22.476 5.32-39.882 15.961-52.223 10.639-12.341 27.104-18.512 49.389-18.512zM386.507 709.018c10.143 3.344 18.261 8.569 24.358 15.672 6.094 7.102 10.474 15.749 13.14 25.94 2.663 10.19 3.996 22.594 3.996 37.211v92.333c0 14.205-1.306 26.171-3.919 35.899s-7.045 17.935-13.293 24.627c-6.25 6.69-14.549 11.58-24.896 14.668-10.35 3.088-23.206 4.632-38.573 4.632h-59.32v-256h61.164c14.753 0 27.201 1.672 37.344 5.018zM334.41 736.734v189.915h12.755c5.225 0 9.682-0.335 13.37-1.004s6.762-1.853 9.221-3.551 4.43-3.578 5.916-5.636c1.484-2.060 2.612-4.968 3.381-8.724 0.768-3.759 1.254-7.488 1.46-11.194 0.204-3.706 0.307-8.596 0.307-14.668v-93.568c0-6.075-0.053-10.654-0.154-13.742-0.103-3.088-0.36-6.82-0.768-11.194-0.411-4.376-1.025-7.643-1.844-9.804-0.821-2.162-2.024-4.531-3.612-7.102-1.59-2.574-3.561-4.427-5.916-5.558-2.358-1.134-5.278-2.111-8.76-2.934-3.484-0.825-7.53-1.235-12.14-1.235h-13.216zM584.036 738.998c-17.902 0-27.357 16.542-28.361 49.63l-39.675-8.297c2.211-50.888 25.344-76.33 69.394-76.33 18.706 0 33.816 5.68 45.332 17.046 11.515 11.363 17.273 26.147 17.273 44.35 0 7.943-0.957 15.486-2.866 22.628-1.912 7.14-4.702 13.676-8.373 19.611-3.672 5.933-7.519 11.212-11.54 15.839-4.024 4.624-8.75 9.402-14.18 14.331l-32.585 28.36c-6.739 5.933-11.692 11.488-14.86 16.669-3.168 5.178-4.752 11.79-4.752 19.837 0 6.838 1.784 12.294 5.356 16.367 3.569 4.073 8.724 6.31 15.463 6.713 3.922 0.302 7.366-0.252 10.334-1.659 2.965-1.41 5.329-3.295 7.090-5.657 1.758-2.364 3.192-5.457 4.3-9.277 1.106-3.823 1.886-7.594 2.338-11.314 0.453-3.722 0.778-8.096 0.98-13.124l38.921 7.693c-0.603 7.844-1.659 14.958-3.168 21.346-1.508 6.385-3.798 12.544-6.864 18.479-3.069 5.933-6.89 10.885-11.465 14.859-4.578 3.972-10.386 7.14-17.424 9.504-7.041 2.362-15.138 3.493-24.288 3.394-19.913-0.203-35.579-5.683-46.992-16.443-11.416-10.762-17.122-25.848-17.122-45.255 0-13.678 2.362-25.067 7.090-34.168 4.726-9.103 11.918-17.876 21.573-26.324l32.887-28.511c6.133-5.431 10.862-9.982 14.181-13.652 3.319-3.672 6.235-8.398 8.75-14.18 2.512-5.784 3.771-12.144 3.771-19.083 0-7.142-1.685-12.822-5.054-17.046-3.371-4.224-8.524-6.335-15.463-6.335zM736 288h128v-128h-128v128zM848 368c0 12.82-4.993 24.873-14.060 33.94s-21.12 14.060-33.94 14.060-24.873-4.993-33.94-14.060-14.060-21.12-14.060-33.94v-48h96v48zM896 489.477v86.523c0 35.2-28.8 64-64 64h-640c-35.2 0-64-28.8-64-64v-384c0-35.2 28.8-64 64-64h449.236c40.401-39.589 95.732-64 156.764-64 123.712 0 224 100.288 224 224 0 88.567-51.402 165.125-126 201.477zM160 576c0 8.477 3.348 16.493 9.427 22.573s14.096 9.427 22.573 9.427h640c8.477 0 16.493-3.348 22.573-9.427s9.427-14.096 9.427-22.573v-64h-704v64zM192 160c-8.477 0-16.493 3.348-22.573 9.427s-9.427 14.096-9.427 22.573v192h435.561c-13.823-29.097-21.561-61.644-21.561-96 0-47.593 14.845-91.717 40.154-128h-422.154zM614.154 416h-454.154v32h481.236c-9.986-9.786-19.060-20.499-27.082-32zM896 128h-192v192h16v48c0 44.18 35.82 80 80 80s80-35.82 80-80v-48h16v-192zM448 832h64v-32h-64v32z" />
<glyph unicode="&#xe60a;" glyph-name="google-plus" data-tags="google-plus, brand, social" d="M325.818 436.364v-111.709h184.786c-7.447-47.942-55.854-140.567-184.786-140.567-111.244 0-202.007 92.16-202.007 205.731s90.764 205.731 202.007 205.731c63.302 0 105.658-26.996 129.862-50.269l88.436 85.178c-56.786 53.062-130.327 85.178-218.298 85.178-180.131 0-325.818-145.687-325.818-325.818s145.687-325.818 325.818-325.818c188.044 0 312.786 132.189 312.786 318.371 0 21.411-2.327 37.702-5.12 53.993h-307.666zM1024 436.364h-93.091v93.091h-93.091v-93.091h-93.091v-93.091h93.091v-93.091h93.091v93.091h93.091z" />
<glyph unicode="&#xe60b;" glyph-name="facebook" data-tags="facebook, brand, social" d="M672 832c-88.366 0-160-71.634-160-160v-96h-128v-128h128v-448h128v448h144l32 128h-176v96c0 17.672 14.326 32 32 32h160v128h-160z" />
<glyph unicode="&#xe60c;" glyph-name="twitter" data-tags="twitter, brand, tweet, social" d="M984.621 741.157c-34.778-15.423-72.153-25.848-111.38-30.536 40.036 24 70.788 62.004 85.268 107.291-37.474-22.226-78.976-38.364-123.149-47.059-35.373 37.69-85.776 61.238-141.552 61.238-107.099 0-193.93-86.824-193.93-193.921 0-15.2 1.715-30.001 5.022-44.196-161.171 8.090-304.068 85.294-399.714 202.624-16.693-28.642-26.258-61.954-26.258-97.495 0-67.282 34.236-126.64 86.272-161.417-31.789 1.008-61.692 9.731-87.836 24.257-0.018-0.809-0.018-1.621-0.018-2.439 0-93.96 66.849-172.337 155.561-190.156-16.27-4.431-33.405-6.805-51.091-6.805-12.497 0-24.645 1.218-36.488 3.482 24.68-77.041 96.297-133.115 181.158-134.675-66.37-52.016-149.989-83.017-240.849-83.017-15.654 0-31.090 0.918-46.262 2.714 85.822-55.026 187.758-87.134 297.274-87.134 356.702 0 551.763 295.503 551.763 551.771 0 8.408-0.19 16.771-0.563 25.090 37.899 27.342 70.775 61.496 96.773 100.385z" />
<glyph unicode="&#xe60d;" glyph-name="pinterest" data-tags="pinterest, brand, social" d="M533.538 832c-227.055 0-341.538-162.789-341.538-298.54 0-82.196 31.119-155.321 97.864-182.571 10.944-4.474 20.748-0.154 23.922 11.964 2.208 8.386 7.431 29.543 9.761 38.354 3.2 11.985 1.958 16.189-6.874 26.634-19.246 22.701-31.544 52.090-31.544 93.719 0 120.772 90.359 228.891 235.292 228.891 128.336 0 198.844-78.417 198.844-183.144 0-137.794-60.981-254.092-151.51-254.092-49.994 0-87.419 41.347-75.423 92.058 14.363 60.54 42.186 125.878 42.186 169.577 0 39.118-20.998 71.745-64.452 71.745-51.108 0-92.164-52.87-92.164-123.697 0-45.11 15.244-75.62 15.244-75.62s-52.302-221.604-61.469-260.414c-18.259-77.292-2.744-172.040-1.433-181.61 0.77-5.669 8.057-7.017 11.358-2.734 4.713 6.152 65.582 81.299 86.278 156.388 5.854 21.263 33.614 131.362 33.614 131.362 16.602-31.671 65.131-59.569 116.738-59.569 153.628 0 257.856 140.056 257.856 327.525 0.001 141.755-120.066 273.774-302.552 273.774z" />
<glyph unicode="&#xe60e;" glyph-name="youtube3" data-tags="youtube, brand, social" d="M915.004 718.172c-31.283 26.501-42.74 34-107.476 37.259-18.308 0.905-178.064 7.77-289.659 7.77-104.648 0-259.271-6.344-305.554-7.892-50.27-4.498-68.878-7.134-96.41-30.712-41.951-37.336-51.904-110.7-51.904-222.941v-106.82c0-128.114 17.002-193.2 44.996-217.006 32.313-27.74 53.618-29.957 75.135-33.282 8.354-1.265 67.475-11.746 329.825-11.746 163.602 0 304.224 7.733 318.76 9.605 23.368 2.951 56.937 7.234 82.288 35.423 37.53 42.684 44.996 113.548 44.996 216.211v124.44c0 66.453-3.699 160.371-44.996 199.692zM421.030 322.703v250.594l6.356-3.284 204.619-137.471-210.976-109.839z" />
<glyph unicode="&#xe60f;" glyph-name="tumblr" data-tags="tumblr, brand, social" d="M576.032 512l-0.002-234.184c0-59.418-0.77-93.656 5.53-110.5 6.25-16.754 21.918-34.146 38.99-44.202 22.684-13.588 48.542-20.376 77.708-20.376 51.854 0 82.478 6.848 133.742 40.54v-153.944c-43.7-20.552-81.866-32.594-117.324-40.922-35.5-8.242-73.86-12.406-115.064-12.406-46.828 0-74.456 5.886-110.41 17.656-35.958 11.868-66.66 28.806-92.020 50.54-25.45 21.922-43.022 45.208-52.848 69.832-9.826 24.636-14.716 60.414-14.716 107.244v359.1h-137.426v145.006c40.208 13.042 85.164 31.788 113.78 56.152 28.754 24.45 51.766 53.706 69.106 87.944 17.392 34.146 29.348 77.712 35.872 130.516h165.084l-0.002-255.996h255.968v-192h-255.968z" />
<glyph unicode="&#xe610;" glyph-name="instagram" data-tags="instagram, brand, social" d="M512.003 867.754c136.71 0 152.901-0.523 206.892-2.984 49.918-2.278 77.029-10.621 95.071-17.632 23.9-9.288 40.956-20.384 58.871-38.299 17.918-17.919 29.014-34.972 38.299-58.871 7.010-18.042 15.353-45.154 17.631-95.071 2.462-53.991 2.985-70.182 2.985-206.892 0-136.714-0.522-152.905-2.985-206.892-2.278-49.922-10.621-77.033-17.631-95.075-9.284-23.896-20.38-40.952-38.299-58.871-17.914-17.915-34.972-29.011-58.871-38.299-18.042-7.010-45.154-15.353-95.071-17.628-53.984-2.466-70.17-2.984-206.892-2.984s-152.909 0.519-206.892 2.984c-49.918 2.274-77.029 10.617-95.071 17.628-23.9 9.288-40.956 20.384-58.871 38.299-17.915 17.919-29.010 34.975-38.299 58.871-7.010 18.042-15.353 45.154-17.631 95.075-2.462 53.987-2.984 70.178-2.984 206.892 0 136.71 0.523 152.901 2.984 206.892 2.278 49.918 10.621 77.029 17.631 95.071 9.288 23.9 20.384 40.952 38.299 58.871 17.915 17.915 34.972 29.010 58.871 38.299 18.042 7.010 45.154 15.353 95.071 17.632 53.991 2.462 70.182 2.984 206.892 2.984zM512.003 960.004c-139.052 0-156.488-0.587-211.098-3.080-54.498-2.49-91.716-11.144-124.281-23.8-33.671-13.083-62.223-30.59-90.686-59.054s-45.972-57.020-59.055-90.686c-12.66-32.57-21.314-69.787-23.8-124.285-2.494-54.61-3.080-72.042-3.080-211.094 0-139.056 0.587-156.488 3.080-211.098 2.486-54.498 11.14-91.716 23.8-124.286 13.083-33.667 30.59-62.222 59.055-90.686s57.016-45.972 90.686-59.054c32.566-12.656 69.783-21.31 124.281-23.8 54.61-2.49 72.046-3.080 211.098-3.080s156.488 0.59 211.097 3.080c54.498 2.49 91.716 11.144 124.282 23.8 33.671 13.083 62.222 30.591 90.686 59.054s45.972 57.020 59.055 90.686c12.66 32.57 21.314 69.787 23.8 124.286 2.494 54.61 3.080 72.042 3.080 211.098 0 139.052-0.586 156.484-3.080 211.094-2.486 54.498-11.14 91.716-23.8 124.286-13.083 33.667-30.59 62.222-59.055 90.686s-57.016 45.972-90.686 59.054c-32.566 12.656-69.783 21.31-124.282 23.8-54.61 2.493-72.046 3.080-211.097 3.080zM512.003 710.922c-145.204 0-262.919-117.714-262.919-262.918 0-145.208 117.714-262.918 262.919-262.918s262.918 117.71 262.918 262.918c0 145.204-117.714 262.918-262.918 262.918zM512.003 277.336c-94.258 0-170.668 76.41-170.668 170.668s76.41 170.668 170.668 170.668c94.257 0 170.668-76.41 170.668-170.668s-76.411-170.668-170.668-170.668zM846.751 721.31c0-33.93-27.506-61.441-61.441-61.441-33.93 0-61.441 27.51-61.441 61.441 0 33.934 27.51 61.44 61.441 61.44 33.934 0 61.441-27.507 61.441-61.44z" />
<glyph unicode="&#xe611;" glyph-name="arrow-down-dot" data-tags="arrow-down-dot" d="M864 672h64v-64h-64v64zM736 544h64v-64h-64v64zM608 416h64v-64h-64v64zM479.999 288h64.001v-64h-64.001v64zM352 416h64v-64h-64v64zM224 544h64v-64h-64v64zM96 672h64v-64h-64v64z" />
<glyph unicode="&#xe612;" glyph-name="arrow-up-dot" data-tags="arrow-up-dot" d="M864 288h64v-64h-64v64zM736 416h64v-64h-64v64zM608 544h64v-64h-64v64zM479.999 672h64.001v-64h-64.001v64zM352 544h64v-64h-64v64zM224 416h64v-64h-64v64zM96 288h64v-64h-64v64z" />
<glyph unicode="&#xe613;" glyph-name="arrow-left-dot" data-tags="arrow-left-dot" d="M672 864h64v-64h-64v64zM544 736h64v-64h-64v64zM416 608h64v-64h-64v64zM288 480h64v-64.001h-64v64.001zM416 352h64v-64h-64v64zM544 224h64v-64h-64v64zM672 96h64v-64h-64v64z" />
<glyph unicode="&#xe614;" glyph-name="arrow-right-dot" data-tags="arrow-right-dot" d="M288 864h64v-64h-64v64zM416 736h64v-64h-64v64zM544 608h64v-64h-64v64zM672 480h64v-64.001h-64v64.001zM544 352h64v-64h-64v64zM416 224h64v-64h-64v64zM288 96h64v-64h-64v64z" />
<glyph unicode="&#xe615;" glyph-name="arrow-up-full" data-tags="arrow_up_full" d="M960 192v128l-448 384-448-384v-128l448 384z" />
<glyph unicode="&#xe616;" glyph-name="arrow-down-full" data-tags="arrow-down-full" d="M960 704v-128l-448-384-448 384v128l448-384z" />
<glyph unicode="&#xe617;" glyph-name="arrow-left-full" data-tags="arrow-left-full" d="M768 896h-128l-384-448 384-448h128l-384 448z" />
<glyph unicode="&#xe618;" glyph-name="arrow-right-full" data-tags="arrow-right-full" d="M256 896h128l384-448-384-448h-128l384 448z" />
<glyph unicode="&#xe900;" glyph-name="star-blk" data-tags="star-blk" d="M513.11 936l-115.112-383.206-397.998 10.945 327.008-228.583-133.432-377.227 317.274 242.034 315.644-243.963-130.839 377.998 328.344 226.462-398.086-8.389z" />
<glyph unicode="&#xe901;" glyph-name="checkbox-circle-checked" data-tags="checkbox-circle-checked" d="M512 864c28.094 0 56.181-2.852 83.479-8.475 26.575-5.475 52.745-13.644 77.783-24.282 24.62-10.46 48.395-23.408 70.665-38.486 22.090-14.956 42.879-32.128 61.79-51.039s36.082-39.7 51.039-61.79c15.078-22.27 28.027-46.045 38.486-70.665 10.637-25.038 18.807-51.208 24.282-77.783 5.624-27.298 8.475-55.385 8.475-83.479s-2.852-56.181-8.475-83.479c-5.475-26.575-13.644-52.745-24.282-77.783-10.46-24.62-23.408-48.395-38.486-70.665-14.956-22.090-32.128-42.88-51.039-61.79s-39.7-36.082-61.79-51.039c-22.27-15.078-46.045-28.027-70.665-38.486-25.038-10.637-51.208-18.807-77.783-24.282-27.298-5.624-55.385-8.475-83.479-8.475s-56.181 2.852-83.479 8.475c-26.575 5.475-52.745 13.644-77.783 24.282-24.62 10.459-48.395 23.408-70.665 38.486-22.090 14.956-42.879 32.128-61.79 51.039s-36.082 39.7-51.039 61.79c-15.078 22.27-28.027 46.045-38.486 70.665-10.637 25.038-18.807 51.208-24.282 77.783-5.624 27.298-8.475 55.385-8.475 83.479s2.852 56.181 8.475 83.479c5.475 26.575 13.644 52.745 24.282 77.783 10.46 24.62 23.408 48.395 38.486 70.665 14.956 22.090 32.128 42.88 51.039 61.79s39.7 36.082 61.79 51.039c22.27 15.078 46.045 28.027 70.665 38.486 25.038 10.637 51.208 18.807 77.783 24.282 27.298 5.624 55.385 8.475 83.479 8.475zM512 960c-281.6 0-512-230.4-512-512s230.4-512 512-512 512 230.4 512 512-230.4 512-512 512v0zM751.044 695.962c-17.514-1.739-38.286-16.040-46.161-31.78l-183.034-365.842c-7.875-15.74-21.312-16.031-29.861-0.646l-180.444 324.735c-8.549 15.384-29.872 26.539-47.384 24.787l-40.318-4.032c-17.513-1.752-24.848-15.772-16.3-31.158l288.919-520.054c8.547-15.385 21.98-15.093 29.852 0.649l291.378 582.757c7.871 15.742-0.019 27.199-17.532 25.46l-49.114-4.876z" />
<glyph unicode="&#xe902;" glyph-name="checkbox-circle-selected" data-tags="checkbox-circle-selected" d="M512 864c28.094 0 56.181-2.852 83.479-8.475 26.575-5.475 52.745-13.644 77.783-24.282 24.62-10.46 48.395-23.408 70.665-38.486 22.090-14.956 42.879-32.128 61.79-51.039s36.082-39.7 51.039-61.79c15.078-22.27 28.027-46.045 38.486-70.665 10.637-25.038 18.807-51.208 24.282-77.783 5.624-27.298 8.475-55.385 8.475-83.479s-2.852-56.181-8.475-83.479c-5.475-26.575-13.644-52.745-24.282-77.783-10.46-24.62-23.408-48.395-38.486-70.665-14.956-22.090-32.128-42.88-51.039-61.79s-39.7-36.082-61.79-51.039c-22.27-15.078-46.045-28.027-70.665-38.486-25.038-10.637-51.208-18.807-77.783-24.282-27.298-5.624-55.385-8.475-83.479-8.475s-56.181 2.852-83.479 8.475c-26.575 5.475-52.745 13.644-77.783 24.282-24.62 10.459-48.395 23.408-70.665 38.486-22.090 14.956-42.879 32.128-61.79 51.039s-36.082 39.7-51.039 61.79c-15.078 22.27-28.027 46.045-38.486 70.665-10.637 25.038-18.807 51.208-24.282 77.783-5.624 27.298-8.475 55.385-8.475 83.479s2.852 56.181 8.475 83.479c5.475 26.575 13.644 52.745 24.282 77.783 10.46 24.62 23.408 48.395 38.486 70.665 14.956 22.090 32.128 42.88 51.039 61.79s39.7 36.082 61.79 51.039c22.27 15.078 46.045 28.027 70.665 38.486 25.038 10.637 51.208 18.807 77.783 24.282 27.298 5.624 55.385 8.475 83.479 8.475zM512 960c-281.6 0-512-230.4-512-512s230.4-512 512-512 512 230.4 512 512-230.4 512-512 512v0zM832 448c0-176-144-320-320-320v0c-176 0-320 144-320 320s144 320 320 320v0c176 0 320-144 320-320z" />
<glyph unicode="&#xe903;" glyph-name="checkbox-circle" data-tags="checkbox-circle" d="M512 864c28.094 0 56.181-2.852 83.479-8.475 26.575-5.475 52.745-13.644 77.783-24.282 24.62-10.46 48.395-23.408 70.665-38.486 22.090-14.956 42.879-32.128 61.79-51.039s36.082-39.7 51.039-61.79c15.078-22.27 28.027-46.045 38.486-70.665 10.637-25.038 18.807-51.208 24.282-77.783 5.624-27.298 8.475-55.385 8.475-83.479s-2.852-56.181-8.475-83.479c-5.475-26.575-13.644-52.745-24.282-77.783-10.46-24.62-23.408-48.395-38.486-70.665-14.956-22.090-32.128-42.88-51.039-61.79s-39.7-36.082-61.79-51.039c-22.27-15.078-46.045-28.027-70.665-38.486-25.038-10.637-51.208-18.807-77.783-24.282-27.298-5.624-55.385-8.475-83.479-8.475s-56.181 2.852-83.479 8.475c-26.575 5.475-52.745 13.644-77.783 24.282-24.62 10.459-48.395 23.408-70.665 38.486-22.090 14.956-42.879 32.128-61.79 51.039s-36.082 39.7-51.039 61.79c-15.078 22.27-28.027 46.045-38.486 70.665-10.637 25.038-18.807 51.208-24.282 77.783-5.624 27.298-8.475 55.385-8.475 83.479s2.852 56.181 8.475 83.479c5.475 26.575 13.644 52.745 24.282 77.783 10.46 24.62 23.408 48.395 38.486 70.665 14.956 22.090 32.128 42.88 51.039 61.79s39.7 36.082 61.79 51.039c22.27 15.078 46.045 28.027 70.665 38.486 25.038 10.637 51.208 18.807 77.783 24.282 27.298 5.624 55.385 8.475 83.479 8.475zM512 960c-281.6 0-512-230.4-512-512s230.4-512 512-512 512 230.4 512 512-230.4 512-512 512v0z" />
<glyph unicode="&#xe904;" glyph-name="checkbox-rounded-checked" data-tags="checkbox-rounded-checked" d="M896 864c11.342 0 18.976-5.941 22.518-9.482s9.482-11.176 9.482-22.518v-768c0-11.342-5.941-18.976-9.482-22.518s-11.176-9.482-22.518-9.482h-768c-11.342 0-18.976 5.941-22.518 9.482s-9.482 11.176-9.482 22.518v768c0 11.342 5.941 18.976 9.482 22.518s11.176 9.482 22.518 9.482h768zM896 960h-768c-70.4 0-128-57.6-128-128v-768c0-70.4 57.6-128 128-128h768c70.4 0 128 57.6 128 128v768c0 70.4-57.6 128-128 128v0zM751.044 759.962c-17.514-1.739-38.286-16.040-46.161-31.78l-183.034-365.842c-7.875-15.74-21.312-16.031-29.861-0.646l-180.444 324.735c-8.549 15.384-29.872 26.539-47.384 24.787l-40.318-4.032c-17.513-1.752-24.848-15.772-16.3-31.158l288.919-520.054c8.547-15.385 21.98-15.093 29.852 0.649l291.378 582.757c7.871 15.742-0.019 27.199-17.532 25.46l-49.114-4.876z" />
<glyph unicode="&#xe905;" glyph-name="checkbox-rounded-selected" data-tags="checkbox-rounded-selected" d="M896 864c11.342 0 18.976-5.941 22.518-9.482s9.482-11.176 9.482-22.518v-768c0-11.342-5.941-18.976-9.482-22.518s-11.176-9.482-22.518-9.482h-768c-11.342 0-18.976 5.941-22.518 9.482s-9.482 11.176-9.482 22.518v768c0 11.342 5.941 18.976 9.482 22.518s11.176 9.482 22.518 9.482h768zM896 960h-768c-70.4 0-128-57.6-128-128v-768c0-70.4 57.6-128 128-128h768c70.4 0 128 57.6 128 128v768c0 70.4-57.6 128-128 128v0zM832 192c0-35.2-28.8-64-64-64h-512c-35.2 0-64 28.8-64 64v512c0 35.2 28.8 64 64 64h512c35.2 0 64-28.8 64-64v-512z" />
<glyph unicode="&#xe906;" glyph-name="checkbox-rounded" data-tags="checkbox-rounded" d="M896 864c11.342 0 18.976-5.941 22.518-9.482s9.482-11.176 9.482-22.518v-768c0-11.342-5.941-18.976-9.482-22.518s-11.176-9.482-22.518-9.482h-768c-11.342 0-18.976 5.941-22.518 9.482s-9.482 11.176-9.482 22.518v768c0 11.342 5.941 18.976 9.482 22.518s11.176 9.482 22.518 9.482h768zM896 960h-768c-70.4 0-128-57.6-128-128v-768c0-70.4 57.6-128 128-128h768c70.4 0 128 57.6 128 128v768c0 70.4-57.6 128-128 128v0z" />
<glyph unicode="&#xe907;" glyph-name="checkbox-checked" data-tags="checkbox-checked" d="M928 864v-832h-832v832h832zM1024 960h-1024v-1024h1024v1024zM719.2 756.8l-211.67-423.078-211.53 380.679-104-10.401 320-576 320 640-112.8-11.2z" />
<glyph unicode="&#xe908;" glyph-name="checkbox-selected" data-tags="checkbox-selected" d="M928 864v-832h-832v832h832zM1024 960h-1024v-1024h1024v1024zM192 768h640v-640h-640v640z" />
<glyph unicode="&#xe909;" glyph-name="checkbox" data-tags="checkbox" d="M928 864v-832h-832v832h832zM1024 960h-1024v-1024h1024v1024z" />
<glyph unicode="&#xe90a;" glyph-name="cross-dot" data-tags="cross-dot" d="M864 864h64v-64h-64v64zM736 736h64v-64h-64v64zM608 608h64v-64h-64v64zM480 480h64v-64.001h-64v64.001zM608 352h64v-64h-64v64zM736 224h64v-64h-64v64zM864 96h64v-64h-64v64zM96 864h64v-64h-64v64zM224 736h64v-64h-64v64zM352 608h64v-64h-64v64zM352 352h64v-64h-64v64zM224 224h64v-64h-64v64zM96 96h64v-64h-64v64z" />
<glyph unicode="&#xe90b;" glyph-name="cross" data-tags="cross" d="M864 864h64v-64h-64v64zM800 800h64v-64h-64v64zM736 736h64v-64h-64v64zM672 672h64v-64h-64v64zM608 544h-64v-64h64v64h64v64h-64zM480 480v-64.001h-64v-63.999h64v63.999h64v64.001zM544 415.999h64v-63.999h-64v63.999zM608 352h64v-64h-64v64zM672 288h64v-64h-64v64zM736 224h64v-64h-64v64zM800 160h64v-64h-64v64zM864 96h64v-64h-64v64zM96 864h64v-64h-64v64zM160 800h64v-64h-64v64zM224 736h64v-64h-64v64zM288 672h64v-64h-64v64zM416 544v-64h64v64h-64v64h-64v-64zM352 352h64v-64h-64v64zM288 288h64v-64h-64v64zM224 224h64v-64h-64v64zM160 160h64v-64h-64v64zM96 96h64v-64h-64v64z" />
<glyph unicode="&#xe90c;" glyph-name="mail-blk-social" data-tags="mail-blk-social" d="M0 832v-768h1024v768h-1024zM881.482 768l-369.482-415.667-369.482 415.667h738.964zM64 128v632l448-504 448 504v-632h-896z" />
<glyph unicode="&#xe90d;" glyph-name="circle" data-tags="circle" d="M1024 448c0-281.6-230.4-512-512-512v0c-281.6 0-512 230.4-512 512s230.4 512 512 512v0c281.6 0 512-230.4 512-512z" />
<glyph unicode="&#xe90e;" glyph-name="6m-warranty" data-tags="6m-warranty" d="M512 284l3.504 215.946 40.233 8.553 31.148-144.591 32.057 158.027 39.325 8.36 3.634-214.43-29.591-6.29-2.596 147.675-31.018-154.821-22.972-4.883-31.408 142.070-2.336-149.243-29.98-6.372zM752.231 332.471c-22.15-4.709-38.027-2.070-47.631 7.916-9.604 9.985-14.406 26.574-14.406 49.765v79.435c0 11.422 1.081 21.559 3.244 30.413 2.162 8.852 5.646 16.861 10.448 24.026s11.226 13.138 19.273 17.92c8.046 4.781 17.736 8.378 29.072 10.788 22.064 4.69 37.917 2.132 47.566-7.671 9.647-9.806 14.471-26.172 14.471-49.101v-79.435c0-11.25-1.103-21.371-3.31-30.362-2.206-8.993-5.71-17.136-10.512-24.43-4.802-7.296-11.226-13.399-19.273-18.31s-17.695-8.564-28.942-10.955zM742.432 361.15c2.726-0.546 5.99-0.414 9.799 0.396 3.806 0.809 7.051 2.060 9.734 3.756 2.681 1.694 4.822 3.622 6.424 5.779 1.6 2.158 2.855 4.803 3.764 7.939 0.908 3.134 1.513 6.205 1.817 9.212 0.302 3.005 0.454 6.542 0.454 10.61v97.736c0 5.192-0.26 9.463-0.779 12.814s-1.537 6.4-3.050 9.151c-1.515 2.748-3.786 4.56-6.814 5.431-3.030 0.869-6.879 0.809-11.551-0.184s-8.546-2.576-11.616-4.741c-3.072-2.168-5.344-4.944-6.814-8.328-1.472-3.385-2.466-6.864-2.985-10.434-0.519-3.573-0.779-7.954-0.779-13.146v-97.736c0-4.068 0.15-7.541 0.454-10.417 0.302-2.879 0.908-5.692 1.817-8.44 0.908-2.75 2.142-4.866 3.699-6.352s3.698-2.503 6.423-3.047zM844.119 354.6v215.202l38.676 8.221v-215.202l-38.676-8.221zM970.14 378.793c-37.897-8.056-57.799 9.604-59.701 52.986l34.134 14.394c0.864-28.286 8.998-40.79 24.4-37.516 5.97 1.269 10.403 4.028 13.303 8.28 2.898 4.25 4.348 9.446 4.348 15.591 0 5.97-1.083 11.212-3.245 15.729-2.164 4.515-4.672 8.048-7.528 10.601-2.855 2.55-6.923 5.602-12.2 9.153l-28.293 18.517c-8.306 5.503-14.493 11.736-18.559 18.704-4.068 6.966-6.1 16.333-6.1 28.102 0 16.699 4.91 30.722 14.73 42.070 9.819 11.346 23.296 18.925 40.428 22.742 7.872 1.759 14.838 2.266 20.895 1.522 6.055-0.748 11.052-2.41 14.99-4.991 3.936-2.583 7.224-6.145 9.864-10.688 2.638-4.546 4.607-9.426 5.905-14.645s2.206-11.148 2.725-17.787l-33.484-13.737c-0.174 4.289-0.454 7.993-0.844 11.113-0.389 3.118-1.060 6.22-2.012 9.307-0.953 3.085-2.186 5.484-3.699 7.196-1.515 1.71-3.549 2.9-6.1 3.571-2.553 0.668-5.516 0.515-8.89-0.462-5.798-1.579-10.233-4.447-13.303-8.604-3.072-4.158-4.607-9.179-4.607-15.062 0-6.924 1.363-12.323 4.088-16.199 2.726-3.878 6.986-7.753 12.784-11.625l28.034-18.443c4.672-3.248 8.738-6.494 12.2-9.738 3.46-3.246 6.769-7.085 9.928-11.518 3.157-4.435 5.558-9.549 7.203-15.342 1.642-5.796 2.466-12.111 2.466-18.945 0-15.663-4.954-29.436-14.86-41.319-9.908-11.884-22.906-19.535-39-22.956zM280.121 333.571c13.455 6.224 26.91 11.606 41.206 14.645 111.845 23.774 186.688-46.094 186.688-154.574 0-122.777-97.548-225.083-222.008-251.538s-222.007 34.383-222.007 157.16c0 85.775 33.637 145.064 71.48 212.813l130.345 231.212 153.892 32.711-139.596-242.429zM286.007 244.842c-56.342-11.976-95.867-59.901-95.867-113.721s39.524-84.943 95.867-72.967c56.343 11.976 95.867 59.901 95.867 113.721s-39.524 84.943-95.867 72.967zM435.518 539.314l588.482 125.086v40l-562.237-119.507-14.316-24.861zM0 486.742v-40l198.441 42.18 25.62 45.446zM0 853.142v-40l690.912 146.858h-188.185zM65.393 639.543l23.888 5.088v-18.188c0-6.776-0.38-12.631-1.134-17.56-0.757-4.932-2.048-9.443-3.87-13.53-1.824-4.089-4.36-7.394-7.607-9.912-3.249-2.52-7.273-4.291-12.078-5.314-9.254-1.971-15.527-0.21-18.817 5.287-3.292 5.494-4.938 14.93-4.938 28.304v89.471c0 3.655 0.044 6.65 0.134 8.989 0.088 2.336 0.288 5.054 0.6 8.152 0.311 3.096 0.755 5.665 1.334 7.707 0.578 2.039 1.422 4.202 2.536 6.492 1.111 2.287 2.469 4.158 4.070 5.615 1.602 1.455 3.58 2.812 5.939 4.073 2.356 1.258 5.048 2.212 8.074 2.857 4.004 0.853 7.384 1.038 10.142 0.556s4.938-1.402 6.539-2.753c1.601-1.354 2.823-3.524 3.67-6.507 0.844-2.986 1.378-6.016 1.601-9.088 0.221-3.075 0.334-7.063 0.334-11.965v-11.501l38.568 8.216v10.833c0 21.843-4.76 37.122-14.28 45.84-9.521 8.715-25.223 10.742-47.11 6.081-12.011-2.558-22.154-6.458-30.428-11.697s-14.77-11.839-19.484-19.798c-4.717-7.959-8.074-16.765-10.076-26.42s-3.003-20.857-3.003-33.606v-72.218c0-25.055 4.604-43.153 13.812-54.298s24.266-14.491 45.174-10.037c18.327 3.904 30.828 15.036 37.501 33.398l2.936-21.842 26.157 5.572v112.608l-60.188-12.821v-26.080zM189.506 801.189l-44.974-231.317 38.035 8.102 9.075 53.422 38.302 8.158 8.942-49.584 37.501 7.988-44.841 212.186-42.038-8.954zM195.912 658.651l14.814 94.231 14.814-87.92-29.627-6.311zM412.976 755.574c4.137 9.708 6.206 21.516 6.206 35.425 0 11.144-1.535 20.246-4.604 27.305-3.070 7.057-7.696 12.18-13.879 15.366-6.185 3.184-13.458 4.844-21.82 4.982-8.364 0.135-18.373-1.038-30.027-3.521l-50.713-10.802v-221.738l40.304 8.585v101.24l17.883 3.809 26.424-95.611 40.437 8.613-30.694 102.726c9.519 6.039 16.348 13.913 20.485 23.621zM373.607 753.34c-5.028-6.153-13.502-10.499-25.423-13.038l-9.742-2.075v66.869l12.144 2.587c11.654 2.482 19.662 1.624 24.022-2.573 4.358-4.2 6.539-12.227 6.539-24.084 0-12.304-2.515-21.532-7.54-27.685zM483.241 863.756l-44.974-231.318 38.035 8.102 9.075 53.422 38.302 8.158 8.942-49.584 37.501 7.988-44.84 212.186-42.039-8.954zM489.646 721.219l14.814 94.231 14.814-87.92-29.627-6.311zM673.814 778.77l-54.183 114.039-27.758-5.913v-221.738l34.164 7.277v132l54.716-120.344 26.424 5.628v221.738l-33.364-7.107zM724.794 885.386l37.1 7.903v-191.914l40.304 8.585v191.914l35.899 7.647v29.824l-113.303-24.134zM856.915 721.614l39.769 8.472v221.737l-39.769-8.471zM1023.333 950.314v9.686h-88.26l-4.358-0.928v-221.738l93.285 19.87v27.951l-52.981-11.285v73.155l41.371 8.812v28.486l-41.371-8.812v63.66z" />
<glyph unicode="&#xe90f;" glyph-name="3y-warranty" data-tags="3y-warranty" d="M221.178 307.125l41.857 8.894c46.982 9.983 97.382 30.94 97.382 88.154 0 36.72-33.315 56.112-75.172 47.218-40.149-8.531-67.484-39.103-75.172-72.333l-140.947-0.915c26.481 110.661 112.758 169.128 215.264 190.91 107.632 22.87 204.16-8.709 204.16-124.844 0-66.608-36.732-126.503-103.361-154.323v-2.562c72.609 6.035 113.612-46.736 113.612-116.759 0-121.258-99.090-202.091-217.827-227.32-107.632-22.87-192.201 6.981-216.973 110.167l134.968 60.275c8.542-40.881 35.023-62.581 89.694-50.964 55.524 11.798 82.006 49.875 82.006 95.133 0 68.316-62.358 56.773-119.592 44.612l-29.898-6.353v111.012zM512 256l48.765 250.452 45.581 9.695 48.62-229.739-40.662-8.649-9.695 53.686-41.53-8.833-9.84-57.842-41.241-8.771zM567.71 352.124l32.124 6.833-16.062 95.194-16.062-102.026zM678.553 291.426v240.080l30.098 6.402 58.749-123.472v135.968l36.176 7.694v-240.080l-28.651-6.094-59.328 130.3v-142.919l-37.044-7.88zM899.948 335.62c-42.253-8.987-64.442 10.715-66.563 59.111l38.057 16.058c0.964-31.556 10.032-45.506 27.204-41.853 6.656 1.416 11.599 4.494 14.832 9.237 3.231 4.742 4.848 10.538 4.848 17.394 0 6.66-1.207 12.508-3.618 17.548-2.412 5.037-5.209 8.978-8.392 11.826-3.184 2.846-7.719 6.25-13.602 10.212l-31.545 20.658c-9.261 6.139-16.159 13.093-20.693 20.866-4.536 7.771-6.802 18.222-6.802 31.351 0 18.63 5.474 34.274 16.424 46.934 10.948 12.657 25.974 21.113 45.075 25.371 8.778 1.962 16.544 2.528 23.298 1.697 6.751-0.833 12.322-2.689 16.713-5.567 4.389-2.881 8.054-6.855 10.997-11.924 2.941-5.072 5.137-10.516 6.584-16.338 1.447-5.824 2.46-12.437 3.039-19.843l-37.333-15.325c-0.195 4.784-0.506 8.917-0.941 12.398-0.434 3.478-1.182 6.939-2.243 10.383-1.062 3.442-2.437 6.118-4.124 8.028-1.689 1.908-3.957 3.235-6.802 3.983-2.846 0.745-6.15 0.574-9.912-0.516-6.464-1.762-11.409-4.961-14.832-9.598-3.426-4.638-5.137-10.24-5.137-16.804 0-7.724 1.52-13.748 4.558-18.072 3.039-4.326 7.79-8.649 14.254-12.968l31.256-20.575c5.209-3.623 9.742-7.245 13.602-10.863 3.857-3.621 7.547-7.904 11.069-12.85 3.52-4.948 6.198-10.652 8.031-17.116 1.831-6.466 2.749-13.511 2.749-21.136 0-17.473-5.523-32.838-16.568-46.096-11.046-13.259-25.54-21.794-43.483-25.61zM0 853.142v-40l690.912 146.858h-188.185zM65.393 639.543l23.888 5.088v-18.188c0-6.776-0.38-12.631-1.134-17.56-0.757-4.932-2.048-9.443-3.87-13.53-1.825-4.089-4.36-7.394-7.607-9.912-3.249-2.52-7.273-4.291-12.078-5.314-9.254-1.971-15.527-0.21-18.817 5.287-3.292 5.494-4.938 14.93-4.938 28.304v89.471c0 3.655 0.044 6.65 0.134 8.989 0.088 2.336 0.288 5.054 0.6 8.152 0.311 3.096 0.755 5.665 1.334 7.707 0.578 2.039 1.422 4.202 2.536 6.492 1.111 2.287 2.469 4.158 4.070 5.615 1.602 1.455 3.58 2.812 5.939 4.073 2.356 1.258 5.048 2.212 8.074 2.857 4.004 0.853 7.384 1.038 10.142 0.556s4.938-1.402 6.539-2.753c1.601-1.354 2.824-3.524 3.67-6.507 0.844-2.986 1.378-6.016 1.601-9.088 0.221-3.075 0.334-7.063 0.334-11.965v-11.501l38.568 8.216v10.833c0 21.843-4.76 37.122-14.28 45.84-9.521 8.715-25.223 10.742-47.11 6.081-12.011-2.558-22.154-6.458-30.428-11.697s-14.77-11.839-19.484-19.798c-4.717-7.959-8.074-16.765-10.076-26.42s-3.003-20.857-3.003-33.606v-72.218c0-25.055 4.604-43.153 13.812-54.298s24.266-14.491 45.175-10.037c18.327 3.904 30.828 15.036 37.501 33.398l2.936-21.842 26.157 5.572v112.608l-60.188-12.821v-26.080zM189.506 801.189l-44.974-231.317 38.035 8.102 9.075 53.422 38.302 8.158 8.942-49.584 37.501 7.988-44.841 212.186-42.038-8.954zM195.912 658.651l14.814 94.231 14.814-87.92-29.627-6.311zM412.976 755.574c4.137 9.708 6.206 21.516 6.206 35.425 0 11.144-1.535 20.246-4.604 27.305-3.070 7.057-7.696 12.18-13.879 15.366-6.185 3.184-13.458 4.844-21.82 4.982-8.364 0.135-18.373-1.038-30.027-3.521l-50.713-10.802v-221.738l40.304 8.585v101.24l17.883 3.809 26.424-95.611 40.437 8.613-30.694 102.726c9.519 6.039 16.348 13.913 20.485 23.621zM373.607 753.34c-5.028-6.153-13.502-10.499-25.423-13.038l-9.742-2.075v66.869l12.144 2.587c11.654 2.482 19.662 1.624 24.022-2.573 4.358-4.2 6.539-12.227 6.539-24.084 0-12.304-2.515-21.532-7.54-27.685zM483.241 863.756l-44.974-231.318 38.035 8.102 9.075 53.422 38.302 8.158 8.942-49.584 37.501 7.988-44.84 212.186-42.039-8.954zM489.646 721.219l14.814 94.231 14.814-87.92-29.627-6.311zM673.814 778.77l-54.183 114.039-27.758-5.913v-221.738l34.164 7.277v132l54.716-120.344 26.424 5.628v221.738l-33.364-7.107zM724.794 885.386l37.1 7.903v-191.914l40.304 8.585v191.914l35.899 7.647v29.824l-113.303-24.134zM856.915 721.614l39.769 8.472v221.737l-39.769-8.471zM1023.333 950.314v9.686h-88.26l-4.358-0.928v-221.738l93.285 19.87v27.951l-52.981-11.285v73.155l41.371 8.812v28.486l-41.371-8.812v63.66zM1024 704.4l-573.961-121.999c6.423-3.875 12.467-8.165 18.094-12.874 6.964-5.829 13.273-12.261 18.904-19.261l536.963 114.135v40zM103.474 508.736l-103.474-21.994v-40l67.93 14.439c1.455 2.502 2.947 4.976 4.48 7.419 8.982 14.319 19.381 27.737 31.064 40.136z" />
<glyph unicode="&#xe910;" glyph-name="2y-warranty" data-tags="2y-warranty" d="M64 66.082l224.984 249.899c22.908 26.141 51.542 56.771 51.542 91.95 0 39.27-33.543 55.865-71.177 47.866-44.997-9.564-71.995-47.21-75.268-89.63l-122.719-17.085c7.363 121.011 90.812 196.835 204.531 221.007 105.538 22.433 187.351-18.264 187.351-134.438 0-74.449-31.907-123.774-76.086-171.616l-175.897-188.741 256.891 54.604v-107.992l-404.153-85.906v130.081zM512 256l48.765 250.452 45.581 9.695 48.62-229.739-40.662-8.649-9.695 53.686-41.53-8.833-9.84-57.842-41.241-8.771zM567.71 352.124l32.124 6.833-16.062 95.194-16.062-102.026zM678.553 291.426v240.080l30.098 6.402 58.749-123.472v135.968l36.176 7.694v-240.080l-28.651-6.094-59.328 130.3v-142.919l-37.044-7.88zM899.948 335.62c-42.253-8.987-64.442 10.715-66.563 59.111l38.057 16.058c0.964-31.556 10.032-45.506 27.204-41.853 6.656 1.416 11.599 4.494 14.832 9.237 3.231 4.742 4.848 10.538 4.848 17.394 0 6.66-1.207 12.508-3.618 17.548-2.412 5.037-5.209 8.978-8.392 11.826-3.184 2.846-7.719 6.25-13.602 10.212l-31.545 20.658c-9.261 6.139-16.159 13.093-20.693 20.866-4.536 7.771-6.802 18.222-6.802 31.351 0 18.63 5.474 34.274 16.424 46.934 10.948 12.657 25.974 21.113 45.075 25.371 8.778 1.962 16.544 2.528 23.298 1.697 6.751-0.833 12.322-2.689 16.713-5.567 4.389-2.881 8.054-6.855 10.997-11.924 2.941-5.072 5.137-10.516 6.584-16.338 1.447-5.824 2.46-12.437 3.039-19.843l-37.333-15.325c-0.195 4.784-0.506 8.917-0.941 12.398-0.434 3.478-1.182 6.939-2.243 10.383-1.062 3.442-2.437 6.118-4.124 8.028-1.689 1.908-3.957 3.235-6.802 3.983-2.846 0.745-6.15 0.574-9.912-0.516-6.464-1.762-11.409-4.961-14.832-9.598-3.426-4.638-5.137-10.24-5.137-16.804 0-7.724 1.52-13.748 4.558-18.072 3.039-4.326 7.79-8.649 14.254-12.968l31.256-20.575c5.209-3.623 9.742-7.245 13.602-10.863 3.857-3.621 7.547-7.904 11.069-12.85 3.52-4.948 6.198-10.652 8.031-17.116 1.831-6.466 2.749-13.511 2.749-21.136 0-17.473-5.523-32.838-16.568-46.096-11.046-13.259-25.54-21.794-43.483-25.61zM0 853.142v-40l690.912 146.858h-188.185zM65.393 639.543l23.888 5.088v-18.188c0-6.776-0.38-12.631-1.134-17.56-0.757-4.932-2.048-9.443-3.87-13.53-1.825-4.089-4.36-7.394-7.607-9.912-3.249-2.52-7.273-4.291-12.078-5.314-9.254-1.971-15.527-0.21-18.817 5.287-3.292 5.494-4.938 14.93-4.938 28.304v89.471c0 3.655 0.044 6.65 0.134 8.989 0.088 2.336 0.288 5.054 0.6 8.152 0.311 3.096 0.755 5.665 1.334 7.707 0.578 2.039 1.422 4.202 2.536 6.492 1.111 2.287 2.469 4.158 4.070 5.615 1.602 1.455 3.58 2.812 5.939 4.073 2.356 1.258 5.048 2.212 8.074 2.857 4.004 0.853 7.384 1.038 10.142 0.556s4.938-1.402 6.539-2.753c1.601-1.354 2.824-3.524 3.67-6.507 0.844-2.986 1.378-6.016 1.601-9.088 0.221-3.075 0.334-7.063 0.334-11.965v-11.501l38.568 8.216v10.833c0 21.843-4.76 37.122-14.28 45.84-9.521 8.715-25.223 10.742-47.11 6.081-12.011-2.558-22.154-6.458-30.428-11.697s-14.77-11.839-19.484-19.798c-4.717-7.959-8.074-16.765-10.076-26.42s-3.003-20.857-3.003-33.606v-72.218c0-25.055 4.604-43.153 13.812-54.298s24.266-14.491 45.175-10.037c18.327 3.904 30.828 15.036 37.501 33.398l2.936-21.842 26.157 5.572v112.608l-60.188-12.821v-26.080zM189.506 801.189l-44.974-231.317 38.035 8.102 9.075 53.422 38.302 8.158 8.942-49.584 37.501 7.988-44.841 212.186-42.038-8.954zM195.912 658.651l14.814 94.231 14.814-87.92-29.627-6.311zM412.976 755.574c4.137 9.708 6.206 21.516 6.206 35.425 0 11.144-1.535 20.246-4.604 27.305-3.070 7.057-7.696 12.18-13.879 15.366-6.185 3.184-13.458 4.844-21.82 4.982-8.364 0.135-18.373-1.038-30.027-3.521l-50.713-10.802v-221.738l40.304 8.585v101.24l17.883 3.809 26.424-95.611 40.437 8.613-30.694 102.726c9.519 6.039 16.348 13.913 20.485 23.621zM373.607 753.34c-5.028-6.153-13.502-10.499-25.423-13.038l-9.742-2.075v66.869l12.144 2.587c11.654 2.482 19.662 1.624 24.022-2.573 4.358-4.2 6.539-12.227 6.539-24.084 0-12.304-2.515-21.532-7.54-27.685zM483.241 863.756l-44.974-231.318 38.035 8.102 9.075 53.422 38.302 8.158 8.942-49.584 37.501 7.988-44.84 212.186-42.039-8.954zM489.646 721.219l14.814 94.231 14.814-87.92-29.627-6.311zM673.814 778.77l-54.183 114.039-27.758-5.913v-221.738l34.164 7.277v132l54.716-120.344 26.424 5.628v221.738l-33.364-7.107zM724.794 885.386l37.1 7.903v-191.914l40.304 8.585v191.914l35.899 7.647v29.824l-113.303-24.134zM856.915 721.614l39.769 8.472v221.737l-39.769-8.471zM1023.333 950.314v9.686h-88.26l-4.358-0.928v-221.738l93.285 19.87v27.951l-52.981-11.285v73.155l41.371 8.812v28.486l-41.371-8.812v63.66zM1024 704.4l-592.654-125.973c5.852-4.153 11.359-8.715 16.484-13.694 6.068-5.895 11.583-12.337 16.528-19.289l559.641 118.956v40zM0 486.742v-40l69.507 14.774c8.903 16.791 19.692 32.468 32.245 46.854l-101.752-21.628z" />
<glyph unicode="&#xe911;" glyph-name="2x-without" data-tags="2x-without" d="M736 160h128v-128h-128v128zM848 240c0 12.82-4.993 24.873-14.060 33.94s-21.12 14.060-33.94 14.060-24.873-4.993-33.94-14.060-14.060-21.12-14.060-33.94v-48h96v48zM896 361.477v86.523c0 35.2-28.8 64-64 64h-640c-35.2 0-64-28.8-64-64v-384c0-35.2 28.8-64 64-64h449.236c40.401-39.589 95.732-64 156.764-64 123.712 0 224 100.288 224 224 0 88.567-51.402 165.125-126 201.477zM160 448c0 8.477 3.348 16.493 9.427 22.573s14.096 9.427 22.573 9.427h640c8.477 0 16.493-3.348 22.573-9.427s9.427-14.096 9.427-22.573v-64h-704v64zM192 32c-8.477 0-16.493 3.348-22.573 9.427s-9.427 14.096-9.427 22.573v192h435.561c-13.823-29.097-21.561-61.644-21.561-96 0-47.593 14.845-91.717 40.154-128h-422.154zM614.154 288h-454.154v32h481.236c-9.986-9.786-19.060-20.499-27.082-32zM896 0h-192v192h16v48c0 44.18 35.82 80 80 80s80-35.82 80-80v-48h16v-192zM960 664v40l-602.193-128h188.185zM308.108 945.586c-16.996 14.339-42.092 17.982-75.292 10.92-18.023-3.834-33.714-10.019-47.072-18.556-13.361-8.538-23.992-19.027-31.895-31.465-7.907-12.443-13.754-26.145-17.548-41.109-3.794-14.968-5.691-31.468-5.691-49.504v-16.849l66.399 14.124v16.374c0 40.973 12.012 64.572 36.045 70.792 11.383 3.052 19.801 1.127 25.255-5.782s8.181-18.116 8.181-33.619c0-7.594-0.674-14.898-2.016-21.906-1.345-7.012-3.876-14.748-7.588-23.21-3.716-8.466-6.603-14.776-8.656-18.928-2.056-4.157-6.247-11.615-12.568-22.37-6.325-10.76-10.197-17.476-11.62-20.152l-96.042-170.886v-47.462l195.403 41.564v54.344l-117.858-25.070 80.864 140.366c0.474 0.891 1.026 1.839 1.66 2.845 0.63 1.002 1.145 1.864 1.542 2.582 0.393 0.714 0.986 1.711 1.778 2.989 6.955 11.762 12.409 21.306 16.363 28.636 3.95 7.325 8.218 16.224 12.806 26.692 4.584 10.468 7.903 20.904 9.96 31.308 2.053 10.404 3.083 21.22 3.083 32.456 0 32.905-8.5 56.53-25.493 70.874zM580.818 960l-30.038-85.45-35.614 73.596-65.493-13.915 59.756-123.818-61.429-170.414 59.039 12.544 32.029 95.663 39.2-80.529 65.732 13.966-64.776 134.168 54.911 144.188z" />
<glyph unicode="&#xe912;" glyph-name="3d-plan" data-tags="3d-plan" d="M678.672 640.332c0 41.891-32.35 76.135-77.006 76.135h-30.24v-152.935h30.24c44.657 0 77.006 34.577 77.006 76.8zM512 960l-384-320v-384l384-320 384 320v384l-384 320zM341.723 637.703h-43.414l61.126 83.036h-77.45v47.262h166.014l-68.42-93.21c32.994-11.487 61.821-37.744 61.821-76.472 0-52.185-38.551-86.318-91.342-86.318-27.438 0-51.054 8.533-89.259 34.462l32.994 38.4c26.743-18.051 40.288-23.631 56.264-23.631 17.713 0 35.426 13.784 35.426 37.087 0 28.554-27.784 39.385-43.761 39.385zM480 45.976l-288 240v300.691l288-240v-300.691zM512 768h89.665c79.82 0 137.135-56.52 137.135-127.668 0-71.48-56.964-128.332-137.135-128.332h-89.665v256zM832 285.976l-288-240v300.69l288 240v-300.69z" />
<glyph unicode="&#xe913;" glyph-name="10y-warranty" data-tags="10y-warranty" d="M624 300.572l43.54 223.618 40.698 8.656 43.411-205.124-36.305-7.722-8.656 47.934-37.080-7.887-8.785-51.644-36.822-7.832zM673.742 386.396l28.682 6.1-14.341 84.994-14.341-91.095zM772.708 332.202v214.358l26.873 5.716 52.455-110.243v121.4l32.3 6.87v-214.358l-25.581-5.441-52.972 116.339v-127.606l-33.075-7.034zM970.382 371.661c-37.726-8.024-57.538 9.567-59.432 52.778l33.979 14.338c0.86-28.175 8.958-40.63 24.29-37.369 5.943 1.264 10.356 4.013 13.243 8.247 2.885 4.234 4.328 9.409 4.328 15.53 0 5.947-1.078 11.168-3.23 15.668-2.154 4.497-4.651 8.016-7.493 10.559-2.843 2.541-6.892 5.58-12.145 9.117l-28.165 18.444c-8.269 5.482-14.428 11.69-18.476 18.631-4.050 6.938-6.073 16.269-6.073 27.992 0 16.634 4.888 30.602 14.664 41.905 9.775 11.301 23.191 18.851 40.246 22.652 7.837 1.752 14.771 2.258 20.801 1.516 6.028-0.744 11.002-2.401 14.922-4.971 3.918-2.573 7.191-6.121 9.819-10.646 2.626-4.528 4.587-9.39 5.879-14.587 1.292-5.2 2.197-11.104 2.713-17.717l-33.333-13.683c-0.174 4.272-0.452 7.962-0.84 11.069-0.388 3.105-1.056 6.195-2.002 9.27-0.948 3.073-2.176 5.462-3.682 7.168-1.508 1.703-3.533 2.889-6.073 3.556-2.541 0.666-5.491 0.513-8.85-0.46-5.772-1.573-10.186-4.429-13.243-8.57-3.059-4.142-4.587-9.143-4.587-15.003 0-6.896 1.357-12.274 4.070-16.136 2.713-3.863 6.955-7.722 12.726-11.579l27.907-18.37c4.651-3.235 8.699-6.469 12.145-9.7 3.444-3.233 6.738-7.057 9.883-11.473 3.143-4.418 5.534-9.511 7.171-15.282 1.635-5.773 2.454-12.064 2.454-18.871 0-15.601-4.932-29.32-14.793-41.157-9.864-11.839-22.804-19.46-38.825-22.867zM42.782 384.431l110.659 23.521v-388.718l-73.554-15.634v319.060l-79.887-16.98 42.782 78.751zM403.451 470.836c55.036 11.698 102.355 1.853 141.956-29.536s59.405-75.708 59.405-132.952c0-56.718-19.538-108.875-58.614-156.454-39.076-47.587-86.478-77.3-142.215-89.147-58.393-12.412-106.899-2.56-145.533 29.567s-57.944 75.928-57.944 131.413c0 37.166 8.996 73.252 26.989 108.252s42.729 64.956 74.216 89.885c31.488 24.922 65.403 41.248 101.739 48.972zM402.393 398.031c-35.94-7.64-66.149-26.558-90.634-56.758s-36.724-64.57-36.724-103.113c0-42.95 15.412-73.642 46.238-92.086 23.96-14.445 51.436-18.37 82.444-11.779 35.050 7.45 64.908 26.469 89.568 57.056s36.998 64.446 36.998 101.588c0 36.96-12.422 65.609-37.257 85.942-24.843 20.324-55.052 26.712-90.634 19.149zM0 853.142v-40l690.912 146.858h-188.185zM65.393 639.543l23.888 5.088v-18.188c0-6.776-0.38-12.631-1.134-17.56-0.757-4.932-2.048-9.443-3.87-13.53-1.825-4.089-4.36-7.394-7.607-9.912-3.249-2.52-7.273-4.291-12.078-5.314-9.254-1.971-15.527-0.21-18.817 5.287-3.292 5.494-4.938 14.93-4.938 28.304v89.471c0 3.655 0.044 6.65 0.134 8.989 0.088 2.336 0.288 5.054 0.6 8.152 0.311 3.096 0.755 5.665 1.334 7.707 0.578 2.039 1.422 4.202 2.536 6.492 1.111 2.287 2.469 4.158 4.070 5.615 1.602 1.455 3.58 2.812 5.939 4.073 2.356 1.258 5.048 2.212 8.074 2.857 4.004 0.853 7.384 1.038 10.142 0.556s4.938-1.402 6.539-2.753c1.601-1.354 2.824-3.524 3.67-6.507 0.844-2.986 1.378-6.016 1.601-9.088 0.221-3.075 0.334-7.063 0.334-11.965v-11.501l38.568 8.216v10.833c0 21.843-4.76 37.122-14.28 45.84-9.521 8.715-25.223 10.742-47.11 6.081-12.011-2.558-22.154-6.458-30.428-11.697s-14.77-11.839-19.484-19.798c-4.717-7.959-8.074-16.765-10.076-26.42s-3.003-20.857-3.003-33.606v-72.218c0-25.055 4.604-43.153 13.812-54.298s24.266-14.491 45.175-10.037c18.327 3.904 30.828 15.036 37.501 33.398l2.936-21.842 26.157 5.572v112.608l-60.188-12.821v-26.080zM189.506 801.189l-44.974-231.317 38.035 8.102 9.075 53.422 38.302 8.158 8.942-49.584 37.501 7.988-44.841 212.186-42.038-8.954zM195.912 658.651l14.814 94.231 14.814-87.92-29.627-6.311zM412.976 755.574c4.137 9.708 6.206 21.516 6.206 35.425 0 11.144-1.535 20.246-4.604 27.305-3.070 7.057-7.696 12.18-13.879 15.366-6.185 3.184-13.458 4.844-21.82 4.982-8.364 0.135-18.373-1.038-30.027-3.521l-50.713-10.802v-221.738l40.304 8.585v101.24l17.883 3.809 26.424-95.611 40.437 8.613-30.694 102.726c9.519 6.039 16.348 13.913 20.485 23.621zM373.607 753.34c-5.028-6.153-13.502-10.499-25.423-13.038l-9.742-2.075v66.869l12.144 2.587c11.654 2.482 19.662 1.624 24.022-2.573 4.358-4.2 6.539-12.227 6.539-24.084 0-12.304-2.515-21.532-7.54-27.685zM483.241 863.756l-44.974-231.318 38.035 8.102 9.075 53.422 38.302 8.158 8.942-49.584 37.501 7.988-44.84 212.186-42.039-8.954zM489.646 721.219l14.814 94.231 14.814-87.92-29.627-6.311zM673.814 778.77l-54.183 114.039-27.758-5.913v-221.738l34.164 7.277v132l54.716-120.344 26.424 5.628v221.738l-33.364-7.107zM724.794 885.386l37.1 7.903v-191.914l40.304 8.585v191.914l35.899 7.647v29.824l-113.303-24.134zM856.915 721.614l39.769 8.472v221.737l-39.769-8.471zM1023.333 950.314v9.686h-88.26l-4.358-0.928v-221.738l93.285 19.87v27.951l-52.981-11.285v73.155l41.371 8.812v28.486l-41.371-8.812v63.66zM1024 664.4l-1024-217.658v40l1024 217.658z" />
<glyph unicode="&#xe914;" glyph-name="3x-without" data-tags="3x-without" d="M736 160h128v-128h-128v128zM848 240c0 12.82-4.993 24.873-14.060 33.94s-21.12 14.060-33.94 14.060-24.873-4.993-33.94-14.060-14.060-21.12-14.060-33.94v-48h96v48zM896 361.477v86.523c0 35.2-28.8 64-64 64h-640c-35.2 0-64-28.8-64-64v-384c0-35.2 28.8-64 64-64h449.236c40.401-39.589 95.732-64 156.764-64 123.712 0 224 100.288 224 224 0 88.567-51.402 165.125-126 201.477zM160 448c0 8.477 3.348 16.493 9.427 22.573s14.096 9.427 22.573 9.427h640c8.477 0 16.493-3.348 22.573-9.427s9.427-14.096 9.427-22.573v-64h-704v64zM192 32c-8.477 0-16.493 3.348-22.573 9.427s-9.427 14.096-9.427 22.573v192h435.561c-13.823-29.097-21.561-61.644-21.561-96 0-47.593 14.845-91.717 40.154-128h-422.154zM614.154 288h-454.154v32h481.236c-9.986-9.786-19.060-20.499-27.082-32zM896 0h-192v192h16v48c0 44.18 35.82 80 80 80s80-35.82 80-80v-48h16v-192zM960 664v40l-602.193-128h188.185zM580.818 960l-30.038-85.45-35.614 73.596-65.493-13.915 59.756-123.818-61.429-170.414 59.039 12.544 32.029 95.663 39.2-80.529 65.732 13.966-64.776 134.168 54.911 144.188zM325.067 810.676c9.952 17.47 14.933 37.728 14.933 60.762 0 34.466-9.18 59.062-27.54 73.779s-44.596 18.446-78.704 11.189c-33.783-7.188-59.854-22.253-78.215-45.188-18.36-22.939-27.54-51.724-27.54-86.356v-18.868l69.524 14.792v13.722c0.16 7.221 0.528 13.59 1.102 19.102 0.57 5.512 1.63 11.006 3.182 16.482 1.549 5.476 3.63 10.122 6.242 13.948 2.608 3.821 6.078 7.174 10.404 10.055 4.322 2.88 9.425 4.946 15.3 6.196 13.87 2.951 23.54 0.513 29.009-7.305 5.466-7.823 8.201-20.718 8.201-38.687 0-20.423-3.592-35.847-10.771-46.276-7.184-10.434-19.749-17.802-37.7-22.111-0.979-0.373-4.082-1.114-9.302-2.224v-58.32c0.49 0.104 2.203 0.426 5.141 0.971 2.938 0.541 4.732 0.884 5.386 1.023 17.461 2.735 29.702-0.787 36.72-10.565 7.015-9.779 10.527-25.45 10.527-47.014 0-8.496-0.245-15.735-0.734-21.72s-1.431-12.028-2.815-18.119c-1.388-6.096-3.389-11.097-5.998-14.998-2.612-3.906-6.162-7.399-10.649-10.474-4.49-3.080-9.834-5.278-16.035-6.597-14.199-3.021-23.868-0.178-29.009 8.53s-7.876 23.318-8.201 43.833v11.272l-69.524-14.792v-14.457c0-36.595 8.648-63.096 25.949-79.508 17.297-16.413 44.065-20.765 80.296-13.056 36.556 7.778 63.32 24.334 80.296 49.674 16.972 25.335 25.46 57.365 25.46 96.081 0 26.625-4.736 47.143-14.198 61.547-9.467 14.404-22.931 22.768-40.393 25.099 16.482 8.243 29.702 21.102 39.658 38.578z" />
<glyph unicode="&#xe915;" glyph-name="zoom-less" data-tags="zoom-less" d="M1024-0.078l-393.476 393.476c46.018 59.508 73.476 134.002 73.476 214.602 0 193.6-158.4 352-352 352s-352-158.4-352-352 158.4-352 352-352c80.599 0 155.094 27.458 214.602 73.476l393.476-393.476 63.922 63.922zM463.65 342.68c-35.423-15.049-72.988-22.68-111.65-22.68s-76.227 7.63-111.65 22.68c-17.045 7.241-33.504 16.206-48.922 26.644-15.292 10.354-29.683 22.241-42.774 35.331s-24.978 27.482-35.331 42.774c-10.438 15.417-19.403 31.877-26.644 48.922-15.049 35.423-22.68 72.988-22.68 111.65s7.63 76.227 22.68 111.65c7.241 17.045 16.206 33.504 26.644 48.922 10.354 15.292 22.241 29.683 35.331 42.774s27.482 24.978 42.774 35.331c15.417 10.438 31.877 19.403 48.922 26.644 35.423 15.049 72.988 22.68 111.65 22.68s76.227-7.63 111.65-22.68c17.045-7.241 33.504-16.206 48.922-26.644 15.292-10.354 29.683-22.241 42.774-35.331s24.978-27.482 35.331-42.774c10.438-15.417 19.403-31.877 26.644-48.922 15.049-35.423 22.68-72.988 22.68-111.65s-7.63-76.227-22.68-111.65c-7.241-17.045-16.206-33.504-26.644-48.922-10.354-15.292-22.241-29.683-35.331-42.774s-27.482-24.977-42.774-35.331c-15.417-10.438-31.877-19.402-48.922-26.644zM192 640h320v-64h-320v64z" />
<glyph unicode="&#xe916;" glyph-name="zoom-more" data-tags="zoom-more" d="M1024-0.078l-393.476 393.476c46.018 59.508 73.476 134.002 73.476 214.602 0 193.6-158.4 352-352 352s-352-158.4-352-352 158.4-352 352-352c80.599 0 155.094 27.458 214.602 73.476l393.476-393.476 63.922 63.922zM463.65 342.68c-35.423-15.049-72.988-22.68-111.65-22.68s-76.227 7.63-111.65 22.68c-17.045 7.241-33.504 16.206-48.922 26.644-15.292 10.354-29.683 22.241-42.774 35.331s-24.978 27.482-35.331 42.774c-10.438 15.417-19.403 31.877-26.644 48.922-15.049 35.423-22.68 72.988-22.68 111.65s7.63 76.227 22.68 111.65c7.241 17.045 16.206 33.504 26.644 48.922 10.354 15.292 22.241 29.683 35.331 42.774s27.482 24.978 42.774 35.331c15.417 10.438 31.877 19.403 48.922 26.644 35.423 15.049 72.988 22.68 111.65 22.68s76.227-7.63 111.65-22.68c17.045-7.241 33.504-16.206 48.922-26.644 15.292-10.354 29.683-22.241 42.774-35.331s24.978-27.482 35.331-42.774c10.438-15.417 19.403-31.877 26.644-48.922 15.049-35.423 22.68-72.988 22.68-111.65s-7.63-76.227-22.68-111.65c-7.241-17.045-16.206-33.504-26.644-48.922-10.354-15.292-22.241-29.683-35.331-42.774s-27.482-24.977-42.774-35.331c-15.417-10.438-31.877-19.402-48.922-26.644zM512 640h-128v128h-64v-128h-128v-64h128v-128h64v128h128z" />
<glyph unicode="&#xe917;" glyph-name="zoom" data-tags="zoom" d="M1024-0.078l-393.476 393.476c46.018 59.508 73.476 134.002 73.476 214.602 0 193.6-158.4 352-352 352s-352-158.4-352-352 158.4-352 352-352c80.599 0 155.094 27.458 214.602 73.476l393.476-393.476 63.922 63.922zM463.65 342.68c-35.423-15.049-72.988-22.68-111.65-22.68s-76.227 7.63-111.65 22.68c-17.045 7.241-33.504 16.206-48.922 26.644-15.292 10.354-29.683 22.241-42.774 35.331s-24.978 27.482-35.331 42.774c-10.438 15.417-19.403 31.877-26.644 48.922-15.049 35.423-22.68 72.988-22.68 111.65s7.63 76.227 22.68 111.65c7.241 17.045 16.206 33.504 26.644 48.922 10.354 15.292 22.241 29.683 35.331 42.774s27.482 24.978 42.774 35.331c15.417 10.438 31.877 19.403 48.922 26.644 35.423 15.049 72.988 22.68 111.65 22.68s76.227-7.63 111.65-22.68c17.045-7.241 33.504-16.206 48.922-26.644 15.292-10.354 29.683-22.241 42.774-35.331s24.978-27.482 35.331-42.774c10.438-15.417 19.403-31.877 26.644-48.922 15.049-35.423 22.68-72.988 22.68-111.65s-7.63-76.227-22.68-111.65c-7.241-17.045-16.206-33.504-26.644-48.922-10.354-15.292-22.241-29.683-35.331-42.774s-27.482-24.977-42.774-35.331c-15.417-10.438-31.877-19.402-48.922-26.644z" />
<glyph unicode="&#xe918;" glyph-name="zoom-circle" data-tags="zoom-circle" d="M512 896c30.259 0 60.518-3.073 89.936-9.134 28.646-5.902 56.854-14.707 83.839-26.171 26.516-11.265 52.118-25.208 76.094-41.441 23.768-16.092 46.134-34.566 66.477-54.909s38.817-42.709 54.909-66.476c16.233-23.976 30.176-49.577 41.441-76.093 11.464-26.985 20.27-55.192 26.171-83.839 6.060-29.418 9.134-59.677 9.134-89.936s-3.073-60.518-9.134-89.936c-5.902-28.646-14.707-56.854-26.171-83.839-11.265-26.516-25.208-52.118-41.441-76.093-16.092-23.768-34.566-46.134-54.909-66.477s-42.709-38.817-66.477-54.909c-23.976-16.233-49.577-30.176-76.094-41.441-26.985-11.464-55.192-20.27-83.839-26.171-29.418-6.060-59.677-9.134-89.936-9.134s-60.518 3.073-89.936 9.134c-28.646 5.902-56.854 14.707-83.839 26.171-26.516 11.265-52.118 25.208-76.094 41.441-23.768 16.092-46.134 34.566-66.477 54.909s-38.817 42.709-54.909 66.477c-16.233 23.976-30.176 49.577-41.441 76.093-11.464 26.985-20.27 55.192-26.171 83.839-6.060 29.418-9.134 59.677-9.134 89.936s3.073 60.518 9.134 89.936c5.902 28.646 14.707 56.854 26.171 83.839 11.265 26.516 25.208 52.118 41.441 76.093 16.092 23.768 34.566 46.134 54.909 66.476s42.709 38.817 66.477 54.909c23.976 16.233 49.577 30.176 76.094 41.441 26.985 11.464 55.192 20.27 83.839 26.171 29.418 6.061 59.677 9.134 89.936 9.134zM512 960c-281.6 0-512-230.4-512-512s230.4-512 512-512 512 230.4 512 512-230.4 512-512 512v0zM704 480h-160v160h-64v-160h-160v-64h160v-160h64v160h160z" />
<glyph unicode="&#xe919;" glyph-name="4x-without" data-tags="4x-without" d="M736 160h128v-128h-128v128zM848 240c0 12.82-4.993 24.873-14.060 33.94s-21.12 14.060-33.94 14.060-24.873-4.993-33.94-14.060-14.060-21.12-14.060-33.94v-48h96v48zM896 361.477v86.523c0 35.2-28.8 64-64 64h-640c-35.2 0-64-28.8-64-64v-384c0-35.2 28.8-64 64-64h449.236c40.401-39.589 95.732-64 156.764-64 123.712 0 224 100.288 224 224 0 88.567-51.402 165.125-126 201.477zM160 448c0 8.477 3.348 16.493 9.427 22.573s14.096 9.427 22.573 9.427h640c8.477 0 16.493-3.348 22.573-9.427s9.427-14.096 9.427-22.573v-64h-704v64zM192 32c-8.477 0-16.493 3.348-22.573 9.427s-9.427 14.096-9.427 22.573v192h435.561c-13.823-29.097-21.561-61.644-21.561-96 0-47.593 14.845-91.717 40.154-128h-422.154zM614.154 288h-454.154v32h481.236c-9.986-9.786-19.060-20.499-27.082-32zM896 0h-192v192h16v48c0 44.18 35.82 80 80 80s80-35.82 80-80v-48h16v-192zM960 664v40l-602.193-128h188.185zM580.818 960l-30.038-85.45-35.614 73.596-65.493-13.915 59.756-123.818-61.429-170.414 59.039 12.544 32.029 95.663 39.2-80.529 65.732 13.966-64.776 134.168 54.911 144.188zM248.384 536v100.072l-120.384-25.578v64.738l104.069 267.226 82.563 17.542v-251.539l42.518 9.034v-58.314l-42.518-9.034v-100.072l-66.248-14.076zM188.81 681.728l59.574 12.658v173.705l-59.574-186.363z" />
<glyph unicode="&#xe91a;" glyph-name="basket-full" data-tags="basket-full" d="M896 736l-251.298 10.471v173.529l-18.983 20.63-240 20-12.623-11.615-43.377 3.615-22.421-20.63v-171.471l-179.298 7.471h-64l-64-832h960l-64 800zM603.298 748.196l-14.596 0.608v153.364l14.596-1.216v-152.755zM547.298 892.951v-142.422l-142.596 5.942v148.364l142.596-11.883zM348.702 909.501l14.596-1.216v-150.089l-14.596 0.608v150.697zM43.195-24l57.725 750.427 30.375-1.266 57.628-749.161h-145.728z" />
<glyph unicode="&#xe91b;" glyph-name="basket" data-tags="basket" d="M896 736l-251.298 10.471v173.529l-18.983 20.63-240 20-12.623-11.615-43.377 3.615-22.421-20.63v-171.471l-179.298 7.471h-64l-64-832h960l-64 800zM603.298 748.196l-14.596 0.608v153.364l14.596-1.216v-152.755zM547.298 892.951v-142.422l-142.596 5.942v148.364l142.596-11.883zM348.702 909.501l14.596-1.216v-150.089l-14.596 0.608v150.697zM43.195-24l57.725 750.427 30.375-1.266 57.628-749.161h-145.728zM229.041-24l-57.499 747.484 191.756-7.246v-56l41.404-1.564v56l198.596-7.504v-56l41.404-1.564v56l214.25-8.096 57.721-721.509h-687.631z" />
<glyph unicode="&#xe91c;" glyph-name="burger-button" data-tags="burger-button" d="M128 768h832v-128h-832v128zM128 511.998h832v-128h-832v128zM128 256h832v-128h-832v128z" />
<glyph unicode="&#xe91d;" glyph-name="cross-short" data-tags="cross-short" d="M640 704h64v-64h-64v64zM576 640h64v-64h-64v64zM512 576h64v-64h-64v64zM448 512h64v-64.001h-64v64.001zM512 447.999h64v-63.999h-64v63.999zM576 384h64v-64h-64v64zM640 320h64v-64h-64v64zM256 704h64v-64h-64v64zM320 640h64v-64h-64v64zM384 576h64v-64h-64v64zM384 447.999h64v-63.999h-64v63.999zM320 384h64v-64h-64v64zM256 320h64v-64h-64v64z" />
<glyph unicode="&#xe91e;" glyph-name="real-time-stock" data-tags="real-time-stock" d="M480.002 888h64v-40h-64v40zM448 936h128v-40h-128v40zM227.528 785.182l51.776 37.619 23.512-32.36-51.776-37.619-23.512 32.36zM721.191 790.39l23.512 32.36 51.776-37.619-23.512-32.36-51.776 37.619zM920 448h-24c0 212.069-171.931 384-383.985 384-212.085 0-384.015-171.931-384.015-384h-64v-192h24v-256h848v256h24v192h-40zM172 448c0 23.096 2.324 46.165 6.908 68.566 4.463 21.809 11.123 43.261 19.794 63.76 8.518 20.137 19.062 39.562 31.341 57.737 12.17 18.013 26.148 34.954 41.545 50.35s32.338 29.375 50.352 41.544c18.175 12.278 37.602 22.823 57.74 31.341 20.5 8.671 41.954 15.33 63.764 19.793 22.402 4.584 45.473 6.908 68.571 6.908 23.094 0 46.161-2.324 68.56-6.908 21.808-4.463 43.258-11.122 63.756-19.793 20.136-8.517 39.56-19.062 57.734-31.341 18.012-12.17 34.952-26.147 50.349-41.544s29.374-32.338 41.544-50.351c12.278-18.174 22.823-37.6 31.34-57.737 8.671-20.499 15.33-41.951 19.793-63.76 4.584-22.401 6.908-45.47 6.908-68.566h-320v236c0 11.046-8.954 20-20 20s-20-8.954-20-20v-236h-320.001zM896 40h-768v200h768v-200zM920 296h-816v112h816v-112zM483.916 706.495c-125.16-13.448-223.729-115.707-231.428-242.494h96.275c1.583 16.513 5.627 32.534 12.086 47.803 8.256 19.518 20.095 37.067 35.188 52.16s32.644 26.932 52.163 35.188c9.022 3.816 18.307 6.787 27.8 8.908v75.941c0 8.504 2.966 16.328 7.915 22.494z" />
<glyph unicode="&#xe91f;" glyph-name="store-subway" data-tags="store-subway" d="M512 928c-265.097 0-480-214.903-480-480s214.903-480 480-480 480 214.903 480 480-214.903 480-480 480zM908.598 280.484c-10.782-25.492-24.13-50.083-39.674-73.090-15.404-22.801-33.096-44.244-52.585-63.733s-40.932-37.181-63.733-52.585c-23.007-15.543-47.598-28.892-73.090-39.674-25.952-10.977-53.112-19.408-80.723-25.058-28.357-5.803-57.559-8.745-86.793-8.745s-58.436 2.942-86.793 8.745c-27.611 5.65-54.77 14.081-80.723 25.058-25.492 10.782-50.083 24.13-73.090 39.674-22.801 15.404-44.244 33.096-63.733 52.585s-37.181 40.932-52.585 63.733c-15.543 23.007-28.891 47.598-39.674 73.090-10.977 25.952-19.408 53.112-25.058 80.723-5.803 28.357-8.745 57.558-8.745 86.793s2.942 58.436 8.745 86.793c5.65 27.611 14.081 54.77 25.058 80.723 10.782 25.492 24.13 50.083 39.674 73.090 15.404 22.801 33.096 44.244 52.585 63.733s40.932 37.181 63.733 52.585c23.007 15.543 47.598 28.892 73.090 39.674 25.952 10.977 53.112 19.408 80.723 25.058 28.357 5.803 57.559 8.745 86.793 8.745s58.436-2.942 86.793-8.745c27.611-5.65 54.77-14.081 80.723-25.058 25.492-10.782 50.083-24.13 73.090-39.674 22.801-15.404 44.244-33.096 63.733-52.585s37.181-40.932 52.585-63.733c15.543-23.007 28.891-47.598 39.674-73.090 10.977-25.952 19.408-53.112 25.058-80.723 5.803-28.357 8.745-57.558 8.745-86.793s-2.942-58.436-8.745-86.793c-5.65-27.611-14.081-54.77-25.058-80.723zM706.228 672h-15.034c-11.154 0-21.368-6.229-26.466-16.139l-152.727-231.549-152.736 231.549c-5.107 9.91-15.321 16.139-26.466 16.139h-15.025c-16.444 0-29.772-13.329-29.772-29.772v-388.456c0-16.443 13.329-29.772 29.772-29.772s29.772 13.329 29.772 29.772v294.814l137.989-202.926c5.107-9.901 15.321-16.13 26.466-16.13s21.368 6.23 26.466 16.148l137.989 202.917v-294.823c0-16.443 13.329-29.772 29.772-29.772s29.772 13.329 29.772 29.772v388.456c-0.001 16.443-13.33 29.772-29.773 29.772z" />
<glyph unicode="&#xe920;" glyph-name="store-phone" data-tags="store-phone" d="M512 892.118l444.118-444.118-444.118-444.118-444.118 444.118 444.117 444.118zM512 960l-512-512 512-512 512 512-512 512zM561.696 732.74c0 0-13.148 1.15-28.777 2.518-89.282 7.811-160.535-117.174-174.293-274.426s34.709-292.711 123.991-300.522c15.629-1.367 28.777-2.518 28.777-2.518 18.356-1.606 34.689 12.099 36.295 30.455l8.179 93.485c1.606 18.356-12.099 34.689-30.455 36.295l-38.683 3.384c-18.356 1.606-32.061 17.938-30.455 36.295l5.292 60.49c1.606 18.356 4.234 48.394 5.84 66.75l5.292 60.49c1.606 18.356 17.938 32.061 36.295 30.455l38.683-3.384c18.356-1.606 34.689 12.099 36.295 30.455l8.179 93.485c1.606 18.356-12.099 34.689-30.455 36.295z" />
<glyph unicode="&#xe921;" glyph-name="store-mail" data-tags="store-mail" d="M512 960l-512-512 512-512 512 512-512 512zM512 344l224 259v-315h-448v315l224-259zM325.984 608h372.033l-186.017-215.082-186.016 215.082z" />
<glyph unicode="&#xe922;" glyph-name="bike-city" data-tags="bike-city" d="M832.651 510.694c-34.443 0-66.757-9.19-94.713-25.183l-53.156 83.361 16.818 49.703-5.358 1.832 15.876 46.332c0 0 44.307 0 47.584 0 3.27 0 6.974 27.903-7.975 33.028s-84.57 2.563-113.186-7.688c-20.442-6.81-24.493-25.627-18.366-25.34 6.12 0.28 73.878 0 73.878 0l-13.975-40.79-4.338 1.482-8.77-25.584-346.195 28.106c9.196 36.766 14.802 62.429 15.566 65.94 1.188 5.529-2.322 10.988-7.852 12.186-1.628 0.354-3.227 0.267-4.722-0.124l-37.963 25.176c0.013 0.274 0.077 0.534 0.077 0.804 0 7.551-6.117 13.668-13.668 13.668-7.545 0-13.668-6.116-13.668-13.668s6.123-13.668 13.668-13.668c2.179 0 4.214 0.554 6.040 1.465l37.326-24.753c-1.885-8.482-7.454-32.995-15.76-65.859-2.806-0.751-5.309-2.916-6.080-5.706l-15.146-54.601c-0.901-3.26 0.174-7.661 2.326-10.458-5.81-20.535-12.166-41.944-18.95-63.22-21.87 8.712-45.685 13.558-70.621 13.558-105.511-0.001-191.348-85.842-191.348-191.346 0-105.511 85.837-191.348 191.348-191.348 105.515 0 191.349 85.838 191.349 191.348 0 73.224-41.36 136.934-101.921 169.095 5.953 18.48 11.569 37.039 16.771 55.055 0 0 269.391-268.877 276.785-276.271 21.496 3.717 70.855 13.688 70.855 13.688 17.839-87.152 95.113-152.915 187.464-152.915 105.512 0 191.348 85.838 191.348 191.348 0 105.504-85.837 191.345-191.349 191.345zM355.362 319.348c0-90.435-73.574-164.013-164.013-164.013-90.442 0-164.013 73.578-164.013 164.013s73.571 164.010 164.013 164.010c21.963 0 42.908-4.365 62.072-12.23-16.751-49.399-35.591-95.668-54.891-125.519-2.302 0.627-4.682 1.075-7.181 1.075-15.096 0-27.335-12.24-27.335-27.336s12.24-27.335 27.335-27.335c15.096 0 27.336 12.239 27.336 27.335 0 5.066-1.472 9.764-3.884 13.828 20.415 31.3 39.972 78.636 57.214 128.896 49.709-28.21 83.348-81.599 83.348-142.724zM211.85 319.348c0-11.305-9.2-20.502-20.502-20.502-11.305 0-20.502 9.196-20.502 20.502s9.196 20.502 20.502 20.502c1.051 0 2.069-0.16 3.080-0.307-3.51-4.985-7.031-9.423-10.558-13.187-3.868-4.124-3.664-10.611 0.464-14.489 1.976-1.848 4.498-2.77 7.014-2.77 2.733 0 5.459 1.088 7.475 3.237 3.888 4.138 7.748 8.996 11.592 14.415 0.895-2.302 1.435-4.784 1.435-7.401zM315.867 602.924l341.96-27.766-34.99-102.124-55.279-160.426-260.178 259.694 8.486 30.622zM586.946 284.959l92.151 267.415 47.216-74.038c-51.221-34.366-85.010-92.804-85.010-158.988 0-8.462 0.608-16.771 1.682-24.946l-56.039-9.444zM837.523 329.359l-6.58 10.318c0.574 0.047 1.122 0.174 1.708 0.174 11.306 0 20.502-9.196 20.502-20.502s-9.196-20.502-20.502-20.502c-7.715 0-14.368 4.338-17.872 10.651l15.062 2.542c4.064 0.681 7.268 3.043 8.789 6.467 1.515 3.417 1.115 7.374-1.108 10.851zM824.13 324.934l-11.612-1.956c0.767 4.278 2.843 8.102 5.84 11.018l5.772-9.063zM805.563 321.805l-135.609-22.858c-0.834 6.694-1.315 13.488-1.315 20.402 0 56.513 28.737 106.452 72.356 135.95l73.671-115.509c-5.106-4.498-8.456-10.824-9.104-17.985zM832.651 155.336c-78.823 0-144.819 55.899-160.476 130.131l135.503 22.837c4.251-9.583 13.815-16.29 24.973-16.29 15.096 0 27.336 12.239 27.336 27.335s-12.24 27.336-27.336 27.336c-1.982 0-3.911-0.234-5.773-0.641l-74.231 116.403c23.684 13.301 50.967 20.912 80.004 20.912 90.436 0 164.013-73.574 164.013-164.010s-73.578-164.013-164.014-164.013z" />
<glyph unicode="&#xe923;" glyph-name="store" data-tags="store" d="M0 958.81h128v-1024h-128v1024zM896 958.81h128v-1024h-128v1024zM696.25 788.838c0 12.146-8.367 16.067-16.987 16.067h-31.689v-32.621h32.312c8.020 0 16.365 2.956 16.365 16.554zM458.868 804.905h-31.691v-32.621h32.315c8.018 0 16.356 2.956 16.356 16.554 0 12.146-8.356 16.066-16.98 16.066zM533.26 753.36h28.997l-14.488 36.765zM768 254.81v64h-128v-64h-63.999l-32-253.866v637.866h319.999v320h-704v-320h320.001v-640h-320v-64h712l-40 320h-64.001zM779.631 830.81h52.37v-26.017h-42.568c-14.008 0-22.279-10.94-24.212-26.99h65.048v-24.442h-65.236c2.122-16.819 11.156-24.496 23.083-24.496h43.885v-26.054h-52.877c-35.923 0-48.723 34.339-48.723 58.602 0 54.532 27.76 69.398 49.23 69.398zM617.201 830.81h69.34c17.942 0 38.473-9.823 38.473-42.614 0-31.745-20.369-42.63-38.061-42.63h-39.38v-42.754h-30.372v127.999zM279.738 702.81h-46.499c-27.786 0-41.239 19.972-41.239 42.499v85.501h30.988v-79.208c0-12.463 3.484-22.737 15.287-22.737h41.464v-26.054zM378.813 804.793h-42.471c-13.976 0-22.233-10.94-24.172-26.99h64.915v-24.442h-65.079c2.103-16.819 11.12-24.496 23.019-24.496h43.788v-26.054h-52.76c-35.85 0-48.616 34.339-48.616 58.602 0 54.532 27.7 69.398 49.125 69.398h52.25v-26.017zM466.571 745.566h-39.394v-42.754h-30.376v127.998h69.344c17.944 0 38.47-9.823 38.47-42.614 0-31.744-20.378-42.63-38.044-42.63zM516.153 702.81h-32.425l50.807 128h25.961l53.522-128h-34.726l-10.238 26.054h-42.687l-10.215-26.054zM656 302.81h96v-48h-96v48zM788.734-1.19l-3-40h-222.546l34 272h208.946l-17.4-232zM844.814-41.19h-35.013l13.13 175.066 21.883-175.066z" />
<glyph unicode="&#xe924;" glyph-name="burger-button-light" data-tags="burger-button-light" d="M128 736h832v-96h-832v96zM128 480h832v-96h-832v96zM128 224h832v-96h-832v96z" />
<glyph unicode="&#xe925;" glyph-name="file-pdf" data-tags="file-pdf, file, file-format" d="M842.012 370.52c-13.648 13.446-43.914 20.566-89.972 21.172-31.178 0.344-68.702-2.402-108.17-7.928-17.674 10.198-35.892 21.294-50.188 34.658-38.462 35.916-70.568 85.772-90.576 140.594 1.304 5.12 2.414 9.62 3.448 14.212 0 0 21.666 123.060 15.932 164.666-0.792 5.706-1.276 7.362-2.808 11.796l-1.882 4.834c-5.894 13.592-17.448 27.994-35.564 27.208l-10.916 0.344c-20.202 0-36.664-10.332-40.986-25.774-13.138-48.434 0.418-120.892 24.98-214.738l-6.288-15.286c-17.588-42.876-39.63-86.060-59.078-124.158l-2.528-4.954c-20.46-40.040-39.026-74.028-55.856-102.822l-17.376-9.188c-1.264-0.668-31.044-16.418-38.028-20.644-59.256-35.38-98.524-75.542-105.038-107.416-2.072-10.17-0.53-23.186 10.014-29.212l16.806-8.458c7.292-3.652 14.978-5.502 22.854-5.502 42.206 0 91.202 52.572 158.698 170.366 77.93 25.37 166.652 46.458 244.412 58.090 59.258-33.368 132.142-56.544 178.142-56.544 8.168 0 15.212 0.78 20.932 2.294 8.822 2.336 16.258 7.368 20.792 14.194 8.926 13.432 10.734 31.932 8.312 50.876-0.72 5.622-5.21 12.574-10.068 17.32zM211.646 145.952c7.698 21.042 38.16 62.644 83.206 99.556 2.832 2.296 9.808 8.832 16.194 14.902-47.104-75.124-78.648-105.066-99.4-114.458zM478.434 760.314c13.566 0 21.284-34.194 21.924-66.254s-6.858-54.56-16.158-71.208c-7.702 24.648-11.426 63.5-11.426 88.904 0 0-0.566 48.558 5.66 48.558v0zM398.852 322.506c9.45 16.916 19.282 34.756 29.33 53.678 24.492 46.316 39.958 82.556 51.478 112.346 22.91-41.684 51.444-77.12 84.984-105.512 4.186-3.542 8.62-7.102 13.276-10.65-68.21-13.496-127.164-29.91-179.068-49.862v0zM828.902 326.348c-4.152-2.598-16.052-4.1-23.708-4.1-24.708 0-55.272 11.294-98.126 29.666 16.468 1.218 31.562 1.838 45.102 1.838 24.782 0 32.12 0.108 56.35-6.072 24.228-6.18 24.538-18.734 20.382-21.332v0zM917.806 730.924c-22.21 30.292-53.174 65.7-87.178 99.704s-69.412 64.964-99.704 87.178c-51.574 37.82-76.592 42.194-90.924 42.194h-496c-44.112 0-80-35.888-80-80v-864c0-44.112 35.886-80 80-80h736c44.112 0 80 35.888 80 80v624c0 14.332-4.372 39.35-42.194 90.924v0zM785.374 785.374c30.7-30.7 54.8-58.398 72.58-81.374h-153.954v153.946c22.982-17.78 50.678-41.878 81.374-72.572v0zM896 16c0-8.672-7.328-16-16-16h-736c-8.672 0-16 7.328-16 16v864c0 8.672 7.328 16 16 16 0 0 495.956 0.002 496 0v-224c0-17.672 14.324-32 32-32h224v-624z" />
<glyph unicode="&#xe926;" glyph-name="Comment-done" data-tags="comment_done" d="M939.147 788.853l-22.294 22.294c-46.669 46.669-138.853 84.853-204.853 84.853h-208c-66 0-158.184-38.184-204.853-84.853l-22.294-22.294c-46.669-46.669-84.853-138.853-84.853-204.853v-336c0-66-33.022-153.022-73.382-193.382l-118.618-118.618h712c66 0 158.184 38.184 204.853 84.853l22.294 22.294c46.669 46.669 84.853 138.853 84.853 204.853v336c0 66-38.184 158.184-84.853 204.853zM783.769 256l-143.769 112-145.565-111.118 61.565 171.785-149.8 105.467 181.533-5.6 52.774 175.467 51.759-175.467 181.533 5.6-149.8-105.467 59.769-172.667z" />
<glyph unicode="&#xe927;" glyph-name="comment, bubble" data-tags="comment" d="M939.147 788.853l-22.294 22.294c-46.669 46.669-138.853 84.853-204.853 84.853h-208c-66 0-158.184-38.184-204.853-84.853l-22.294-22.294c-46.669-46.669-84.853-138.853-84.853-204.853v-336c0-66-33.022-153.022-73.382-193.382l-118.618-118.618h712c66 0 158.184 38.184 204.853 84.853l22.294 22.294c46.669 46.669 84.853 138.853 84.853 204.853v336c0 66-38.184 158.184-84.853 204.853zM895.178 462.998c-11.348-55.361-48.49-105.429-104.582-140.98-56.593-35.868-104.306-54.827-183.387-54.827-78.79 0-124.649 19.052-181.054 55.097-55.009 35.153-92.33 84.755-105.087 139.67-5.099 21.949 8.56 43.875 30.509 48.974 21.948 5.1 43.875-8.56 48.974-30.509 7.906-34.029 32.603-65.77 69.544-89.376 43.259-27.644 73.925-42.257 137.114-42.257 63.589 0 96.197 14.575 139.704 42.15 37.204 23.58 61.47 54.989 68.326 88.443 4.525 22.074 26.088 36.302 48.162 31.776s36.301-26.088 31.776-48.162z" />
<glyph unicode="&#xe928;" glyph-name="search" data-tags="search" d="M384 864c38.905 0 76.616-7.607 112.085-22.609 17.053-7.212 33.505-16.143 48.898-26.543 15.262-10.311 29.616-22.155 42.663-35.202s24.89-27.401 35.202-42.663c10.4-15.394 19.33-31.846 26.543-48.899 15.002-35.468 22.609-73.18 22.609-112.085s-7.607-76.616-22.609-112.085c-7.212-17.053-16.143-33.505-26.543-48.898-10.311-15.262-22.155-29.616-35.202-42.664s-27.401-24.89-42.663-35.202c-15.394-10.4-31.846-19.33-48.898-26.543-35.469-15.002-73.18-22.609-112.085-22.609s-76.616 7.607-112.085 22.609c-17.053 7.212-33.505 16.143-48.898 26.543-15.262 10.311-29.616 22.155-42.663 35.202s-24.89 27.401-35.202 42.664c-10.4 15.394-19.33 31.846-26.543 48.898-15.002 35.469-22.609 73.18-22.609 112.085s7.607 76.616 22.609 112.085c7.212 17.053 16.143 33.505 26.543 48.899 10.311 15.262 22.155 29.616 35.202 42.663s27.401 24.89 42.663 35.202c15.394 10.4 31.846 19.33 48.898 26.543 35.469 15.002 73.18 22.609 112.085 22.609zM384 960c-212.077 0-384-171.923-384-384s171.923-384 384-384c212.078 0 384 171.923 384 384s-171.923 384-384 384v0zM960-64c-16.379 0-32.758 6.248-45.255 18.745l-256 256c-24.994 24.993-24.994 65.516 0 90.509s65.516 24.994 90.51 0l256-256c24.994-24.993 24.994-65.516 0-90.509-12.497-12.497-28.876-18.745-45.255-18.745z" />
</font>
</defs>
</svg>
